<svg xmlns="http://www.w3.org/2000/svg" viewBox="0 0 1641.14 1255.21"><defs><style>.cls-1{fill:none;stroke:#fff;stroke-linecap:round;stroke-linejoin:round;stroke-width:40px;}</style></defs><title>15</title><g id="icons"><g id="hands"><path class="cls-1" d="M376,1608s-176-117-176-301c0-123.1,60-318,61-429s-.15-181.9,46-189c52-8,115,14,118,473,109,1,157,85,157,85" transform="translate(-180 -383.79)"/><path class="cls-1" d="M398.38,800.49S628,321,720,419c52.3,55.72-46,148-106,269S507,924,507,924" transform="translate(-180 -383.79)"/><path class="cls-1" d="M726.29,501.47c44.2-53.41,87-120.69,137.71-74.47,34,31,.79,112.57-32.13,164-21.11,33-45.76,68.77-67.87,107C675,852,628,990,628,990" transform="translate(-180 -383.79)"/><path class="cls-1" d="M831.86,591c40.21-40.59,77-95.87,108.14-37,28,53-47.86,162.74-106,280-60,121-87,207-87,207" transform="translate(-180 -383.79)"/><path class="cls-1" d="M881.46,742.07c22.54-35.07,46.75-47.2,70-26.29,46.78,42-15.69,133.7-55.86,237.32S844,1090,856.84,1159.63C894,1287,914,1357,887,1447c-43.57,145.24-108,172-108,172" transform="translate(-180 -383.79)"/><path class="cls-1" d="M1625.14,1606s176-117,176-301c0-123.1-60-318-61-429s.15-181.9-46-189c-52-8-115,14-118,473-109,1-157,85-157,85" transform="translate(-180 -383.79)"/><path class="cls-1" d="M1602.76,798.49S1373.14,319,1281.14,417c-52.3,55.72,46,148,106,269s107,236,107,236" transform="translate(-180 -383.79)"/><path class="cls-1" d="M1274.85,499.47c-44.2-53.41-87-120.69-137.71-74.47-34,31-.79,112.57,32.13,164,21.11,33,45.77,68.77,67.87,107,89,154,136,292,136,292" transform="translate(-180 -383.79)"/><path class="cls-1" d="M1169.28,589c-40.21-40.59-77-95.87-108.14-37-28,53,47.86,162.74,106,280,60,121,87,207,87,207" transform="translate(-180 -383.79)"/><path class="cls-1" d="M1119.68,740.07c-22.54-35.07-46.75-47.2-70-26.29-46.78,42,15.69,133.7,55.86,237.32s51.62,136.9,38.78,206.53C1107.14,1285,1087.14,1355,1114.14,1445c43.57,145.24,108,172,108,172" transform="translate(-180 -383.79)"/></g></g></svg>