<svg xmlns="http://www.w3.org/2000/svg" viewBox="0 0 1628.27 1640.5"><defs><style>.cls-1,.cls-2{fill:none;stroke:#000;stroke-width:40px;}.cls-1{stroke-linecap:round;stroke-linejoin:round;}.cls-2{stroke-miterlimit:10;}</style></defs><title>4</title><g id="icons"><g id="printer"><path class="cls-1" d="M1486.9,1026.93v714.66A59.08,59.08,0,0,1,1428,1800.5H573.28a59.08,59.08,0,0,1-58.91-58.91V1027.25Z" transform="translate(-186.5 -180)"/><path class="cls-2" d="M514.37,593.46V258.91A59.08,59.08,0,0,1,573.28,200H1428a59.08,59.08,0,0,1,58.91,58.91V593.46" transform="translate(-186.5 -180)"/><path class="cls-2" d="M1486.9,1460.39h211.18c53.18,0,96.69-43.51,96.69-96.69V690.15c0-53.18-43.51-96.69-96.69-96.69H303.2c-53.19,0-96.7,43.51-96.7,96.69V1363.7c0,53.18,43.51,96.69,96.7,96.69H514.37" transform="translate(-186.5 -180)"/><line class="cls-1" x1="569.06" y1="1049.21" x2="1058.1" y2="1049.21"/><line class="cls-1" x1="570.17" y1="1233.71" x2="1059.21" y2="1233.71"/><line class="cls-1" x1="570.17" y1="1418.21" x2="1059.21" y2="1418.21"/><line class="cls-1" x1="183.38" y1="572.39" x2="216.73" y2="572.39"/></g></g></svg>