<svg xmlns="http://www.w3.org/2000/svg" viewBox="0 0 1640 1640"><defs><style>.cls-1{fill:none;stroke:#000;stroke-miterlimit:10;stroke-width:40px;}</style></defs><title>6</title><g id="icons"><g id="internet"><circle class="cls-1" cx="820" cy="820" r="800"/><path class="cls-1" d="M449,1580c143.47-136.34,337.46-220,551-220s407.53,83.66,551,220" transform="translate(-180 -180)"/><path class="cls-1" d="M1551.5,420.48C1408.08,556.53,1214.29,640,1001,640c-213.78,0-408-83.86-551.5-220.47" transform="translate(-180 -180)"/><line class="cls-1" x1="820" y1="20" x2="820" y2="1620"/><line class="cls-1" x1="20" y1="820" x2="1620" y2="820"/><path class="cls-1" d="M1388,1000c0,441.83-388,784-388,784s-388-342.17-388-784,388-781,388-781S1388,558.17,1388,1000Z" transform="translate(-180 -180)"/></g></g></svg>