<svg xmlns="http://www.w3.org/2000/svg" viewBox="0 0 1640 1302"><defs><style>.cls-1,.cls-2{fill:none;stroke:#000;stroke-width:40px;}.cls-1{stroke-miterlimit:10;}.cls-2{stroke-linecap:round;stroke-linejoin:round;}</style></defs><title>7</title><g id="icons"><g id="workspace"><path class="cls-1" d="M1342.41,424h37.87c44.85,0,81.54,37.46,81.54,83.23v695.86c0,45.78-36.69,83.23-81.54,83.23H281.54c-44.85,0-81.54-37.45-81.54-83.23V507.26c0-45.77,36.69-83.23,81.54-83.23h855" transform="translate(-180 -340)"/><line class="cls-1" x1="20" y1="796.26" x2="1281.82" y2="796.26"/><rect class="cls-1" x="20" y="1137.37" width="1600" height="144.63" rx="53" ry="53"/><line class="cls-1" x1="466.45" y1="946.35" x2="466.45" y2="1137.37"/><line class="cls-1" x1="835.37" y1="946.35" x2="835.37" y2="1137.37"/><path class="cls-1" d="M1268,1462.46v-15c0-45.78,36.7-83.23,81.54-83.23h279.37c44.84,0,81.53,37.45,81.53,83.23v15" transform="translate(-180 -340)"/><line class="cls-1" x1="1407.47" y1="1024.23" x2="1530.44" y2="586.24"/><ellipse class="cls-1" cx="1544.48" cy="530.98" rx="67.5" ry="68.9"/><line class="cls-1" x1="1495.69" y1="483.91" x2="1168.2" y2="228.76"/><path class="cls-1" d="M1070.18,521,1141,409.64c41.43-55.41,119-66,173.3-23.75s64.7,121.49,23.27,176.9l-58.85,87.84" transform="translate(-180 -340)"/><polygon class="cls-2" points="1104 513.96 711.53 273.71 828.55 152.83 1153.36 351.65 1104 513.96"/></g></g></svg>