<svg xmlns="http://www.w3.org/2000/svg" viewBox="0 0 1638.25 1583.56"><defs><style>.cls-1{fill:none;stroke:#fff;stroke-linecap:round;stroke-linejoin:round;stroke-width:40px;}</style></defs><title>85</title><g id="icons"><g id="relax"><path class="cls-1" d="M769.29,467.08c-36,29.15-72.75,56.38-111.39,86.66C408.12,749.5,217,970.35,200.53,1280.07c-34.79,656.44,1297.12,563.14,1474.28,253.1,297.39-620.09,1.53-1259.55-303.71-1299.23-155.59-20.22-274.62,12.89-383,73.36" transform="translate(-179.87 -208)"/><path class="cls-1" d="M504.82,1033s368.45,195.44,656.63-46.34S1336,422.44,1336,422.44" transform="translate(-179.87 -208)"/><path class="cls-1" d="M1162.3,1186.21s27.73,91.71,0,248.88c-57,322.7-335.35,328-335.35,328" transform="translate(-179.87 -208)"/></g></g></svg>