<?xml version="1.0" encoding="iso-8859-1"?>
<!-- Generator: Adobe Illustrator 19.0.0, SVG Export Plug-In . SVG Version: 6.00 Build 0)  -->
<svg version="1.1" id="Capa_1" xmlns="http://www.w3.org/2000/svg" xmlns:xlink="http://www.w3.org/1999/xlink" x="0px" y="0px"
	 viewBox="0 0 512.001 512.001" style="enable-background:new 0 0 512.001 512.001;" xml:space="preserve">
<path style="fill:#A4E869;" d="M191.706,281.618c10.986-2.79,18.032-13.527,16.162-24.706c-4.51-26.97-11.092-58.177-19.476-91.185
	C174.301,110.249,153.762,62.781,138.7,32.21c-4.892-9.929-19.87-6.124-19.431,4.935c1.352,34.055,5.955,85.57,20.046,141.047
	c8.384,33.009,17.492,63.574,26.399,89.426C169.405,278.335,180.72,284.408,191.706,281.618L191.706,281.618z"/>
<path style="fill:#26BA02;" d="M209.044,271.427c11.331,0.316,21.041-8.087,22.296-19.353c3.027-27.176,5.22-58.994,6.171-93.037
	c1.598-57.217-5.195-108.489-11.335-142.013c-1.994-10.887-17.442-11.318-20.041-0.56c-8.001,33.129-17.644,83.942-19.241,141.159
	c-0.951,34.044-0.537,65.933,0.97,93.236C188.487,262.178,197.713,271.111,209.044,271.427L209.044,271.427z"/>
<path style="fill:#A4E869;" d="M305.357,280.498c-10.986-2.79-18.032-13.527-16.162-24.706c4.51-26.97,11.092-58.177,19.476-91.185
	c14.091-55.478,34.63-102.945,49.693-133.517c4.892-9.929,19.87-6.124,19.431,4.935c-1.352,34.055-5.955,85.57-20.046,141.047
	c-8.384,33.009-17.492,63.574-26.399,89.426C327.658,277.216,316.343,283.289,305.357,280.498L305.357,280.498z"/>
<path style="fill:#26BA02;" d="M288.019,270.308c-11.331,0.316-21.041-8.087-22.296-19.353c-3.027-27.176-5.22-58.994-6.171-93.037
	c-1.598-57.217,5.195-108.489,11.335-142.013c1.994-10.887,17.442-11.318,20.04-0.56c8.001,33.129,17.644,83.942,19.241,141.159
	c0.951,34.044,0.537,65.933-0.97,93.236C308.575,261.059,299.349,269.991,288.019,270.308L288.019,270.308z"/>
<path style="fill:#60DC4D;" d="M136.96,262.15C118.043,224.082,72.754,137.674,17.574,65.122c-5.294-6.96,3.278-15.914,10.463-10.93
	c37.58,26.071,98.387,80.875,151.786,186.381c6.42,12.685,0.53,28.146-12.732,33.272l0,0
	C155.53,278.315,142.477,273.251,136.96,262.15z"/>
<path style="fill:#A4E869;" d="M262.591,251.235c6.707-41.977,24.173-137.958,55.211-223.661c2.978-8.222-7.874-14.213-13.246-7.313
	c-28.098,36.09-69.798,106.531-89.312,223.159c-2.346,14.022,7.886,27.024,22.073,27.963l0,0
	C249.685,272.201,260.635,263.475,262.591,251.235z"/>
<path style="fill:#60DC4D;" d="M375.042,262.15c18.918-38.068,64.207-124.476,119.385-197.026c5.294-6.96-3.278-15.914-10.463-10.93
	c-37.58,26.071-98.387,80.875-151.787,186.381c-6.42,12.685-0.53,28.146,12.732,33.272l0,0
	C356.471,278.315,369.525,273.251,375.042,262.15z"/>
<path style="fill:#D7E3E1;" d="M386.798,273.631l-5.3,41.153l-22.38,173.826c-1.169,9.085-8.906,15.891-18.07,15.891H177.189
	c-9.164,0-16.901-6.806-18.07-15.891l-22.38-173.826l-5.3-41.153H386.798z"/>
<g>
	<polygon style="fill:#A5B1B2;" points="386.798,273.631 381.498,314.783 136.74,314.783 131.44,273.631 	"/>
	<path style="fill:#A5B1B2;" d="M386.798,273.631l-27.68,214.978c-1.169,9.085-8.906,15.891-18.07,15.891h-24.564
		c9.154,0,22.141-6.806,23.31-15.891l27.68-214.978H386.798z"/>
</g>
<path style="fill:#D7E3E1;" d="M390.096,299.92H128.142c-8.062,0-14.598-6.536-14.598-14.598v-27.919
	c0-8.062,6.536-14.598,14.598-14.598h261.954c8.062,0,14.598,6.536,14.598,14.598v27.919
	C404.693,293.384,398.158,299.92,390.096,299.92z"/>
<path d="M499.296,49.999c-5.269-5.505-13.331-6.315-19.611-1.967c-30.203,20.951-70.675,56.729-111.041,115.775
	c3.934-17.312,7.245-35.222,9.861-53.449c0.589-4.1-2.258-7.9-6.358-8.489c-4.096-0.582-7.901,2.257-8.489,6.358
	c-3.311,23.063-7.743,45.604-13.176,66.999c-2.662,10.487-5.434,20.849-8.241,30.831c-5.314,9.294-10.586,19.038-15.791,29.247
	h-9.073c0.913-23.517,1.043-49.471,0.375-75.764c13.95-52.308,33.418-96.882,47.338-125.133c0.813-1.651,2.159-1.696,3.142-1.449
	c0.982,0.249,2.139,0.932,2.065,2.772c-0.528,13.537-1.501,27.525-2.89,41.576c-0.407,4.122,2.604,7.794,6.727,8.201
	c4.126,0.407,7.794-2.604,8.201-6.727c1.418-14.345,2.41-28.633,2.95-42.459c0.342-8.592-5.027-15.787-13.361-17.903
	c-8.342-2.117-16.491,1.645-20.29,9.36c-10.549,21.409-24.218,52.008-36.398,88.216c-1.253-13.696-2.949-27.55-5.072-41.472
	c4.511-14.889,9.401-29.794,14.688-44.393c2.602-7.177-0.24-14.762-6.912-18.446c-6.65-3.673-14.545-2.061-19.24,3.905
	c-0.16-0.669-0.318-1.343-0.479-2.007C296.2,5.22,289.018-0.237,280.468,0.008c-8.595,0.242-15.409,6.089-16.955,14.548
	c-4.533,24.796-7.792,50.092-9.712,75.215c-3.147,6.682-6.257,13.696-9.304,21.056c-1.821-38.317-6.646-71.649-10.948-95.152
	c-1.546-8.458-8.359-14.305-16.954-14.547c-8.618-0.246-15.733,5.213-17.754,13.575c-6.073,25.147-13.227,61.053-17.014,102.411
	c-12.179-36.205-25.849-66.803-36.397-88.213c-3.8-7.715-11.955-11.472-20.291-9.361c-8.334,2.116-13.704,9.311-13.362,17.901
	c0.958,24.217,3.632,58.75,10.59,97.661C89.24,92.779,57.271,65.341,32.312,48.029c-6.274-4.347-14.339-3.536-19.607,1.97
	c-5.266,5.504-5.72,13.59-1.103,19.665c20.579,27.06,41.728,58.645,62.857,93.876c2.131,3.553,6.736,4.706,10.289,2.574
	c3.553-2.13,4.705-6.736,2.574-10.289c-21.411-35.702-42.87-67.745-63.779-95.239c-0.035-0.047-0.062-0.086-0.08-0.117
	c0.044-0.067,0.116-0.142,0.182-0.188c0.032,0.018,0.073,0.042,0.123,0.076C52.665,80.403,91.35,114.61,130.165,171.089
	c0.235,0.418,0.501,0.811,0.805,1.169c12.672,18.54,25.351,39.464,37.701,63.048h-36.977c-9.014-17.334-18.405-34.622-27.984-51.443
	c-2.05-3.602-6.631-4.857-10.229-2.807c-3.6,2.05-4.856,6.629-2.807,10.229c8.822,15.493,17.478,31.387,25.831,47.344
	c-6.274,3.903-10.462,10.858-10.462,18.775v27.92c0,12.185,9.913,22.098,22.098,22.098h0.084l23.458,182.149
	c1.647,12.788,12.609,22.432,25.498,22.432h122.859c4.143,0,7.5-3.357,7.5-7.5s-3.357-7.5-7.5-7.5H177.18
	c-5.368,0-9.935-4.019-10.621-9.348L153.22,384.075h211.794l-13.334,103.578c-0.687,5.329-5.258,9.348-10.632,9.348h-9.76
	c-4.143,0-7.5,3.357-7.5,7.5s3.357,7.5,7.5,7.5h9.76c12.895,0,23.861-9.644,25.509-22.432l23.448-182.149h0.089
	c12.186,0,22.099-9.913,22.099-22.098v-27.92c0-9.89-6.531-18.282-15.506-21.093c24.609-46.848,61.186-110.732,103.711-166.648
	C505.016,63.588,504.561,55.502,499.296,49.999z M302.673,156.712c0.761,27.292,0.651,54.289-0.308,78.593h-29.526
	c5.291-30.629,14.082-75.746,26.871-123.918C301.254,126.729,302.26,141.887,302.673,156.712z M310.478,24.87
	c0.035-0.046,0.066-0.081,0.091-0.107c0.074,0.024,0.161,0.072,0.222,0.121c-0.01,0.036-0.022,0.081-0.043,0.137
	c-27.945,77.164-44.966,162.533-53.129,210.284h-33.341c5.475-30.207,12.423-57.169,20.228-81.141
	c0.226-0.497,0.4-1.021,0.514-1.569c6.956-21.149,14.572-39.954,22.417-56.591c0.358-0.549,0.643-1.149,0.848-1.789
	c10.868-22.786,22.14-41.445,32.674-56.456c0.13-0.17,0.254-0.343,0.368-0.524C304.454,32.798,307.515,28.677,310.478,24.87z
	 M278.268,17.253c0.33-1.809,1.608-2.222,2.622-2.251c1.025-0.038,2.317,0.314,2.751,2.107c1.148,4.739,2.264,9.601,3.333,14.489
	c-4.726,6.858-9.579,14.414-14.468,22.707C274.105,41.886,276.027,29.507,278.268,17.253z M213.421,18.226
	c0.434-1.791,1.744-2.137,2.751-2.104c1.014,0.028,2.291,0.442,2.622,2.252c5.59,30.539,12.078,78.017,11.401,131.311
	c-8.219,25.263-15.5,53.712-21.158,85.62h-14.382c-0.919-24.096-1.017-50.707-0.268-77.472
	C195.978,101.01,205.615,50.55,213.421,18.226z M126.766,36.846c-0.073-1.836,1.083-2.519,2.065-2.768
	c0.987-0.249,2.329-0.201,3.144,1.45c13.92,28.254,33.388,72.829,47.336,125.128c-0.545,21.401-0.559,42.66-0.047,62.59
	c-11.682-21.871-23.646-41.471-35.622-59.021C131.864,113.434,127.959,66.984,126.766,36.846z M151.289,369.074l-2.81-21.818
	h221.275l-2.809,21.818H151.289z M371.686,332.256H146.547l-3.199-24.837h231.533L371.686,332.256z M397.194,285.322
	c0,3.914-3.185,7.098-7.099,7.098H128.142c-3.914,0-7.098-3.184-7.098-7.098v-27.92c0-3.914,3.184-7.098,7.098-7.098h261.954
	c3.914,0,7.099,3.184,7.099,7.098L397.194,285.322L397.194,285.322z M488.459,60.583c-44.98,59.142-83.313,126.909-108.171,174.722
	H343.33c50.438-96.319,106.37-148.218,144.9-174.946c0.052-0.035,0.094-0.061,0.127-0.079c0.065,0.047,0.138,0.121,0.182,0.188
	C488.519,60.499,488.494,60.537,488.459,60.583z"/>
<g>
</g>
<g>
</g>
<g>
</g>
<g>
</g>
<g>
</g>
<g>
</g>
<g>
</g>
<g>
</g>
<g>
</g>
<g>
</g>
<g>
</g>
<g>
</g>
<g>
</g>
<g>
</g>
<g>
</g>
</svg>
