<svg id="Layer_1" data-name="Layer 1" xmlns="http://www.w3.org/2000/svg" viewBox="0 0 369 47"><defs><style>.cls-1{opacity:0.79;}.cls-2{fill:snow;}</style></defs><title>hvhv</title><rect class="cls-1" width="369" height="47"/><path class="cls-2" d="M16.79,8.56v25H12v-25Zm1.44,0h8.05l.18,4.22H18.23Z" transform="translate(0)"/><path class="cls-2" d="M46.85,29.31V37H43.79c0-2.34-.52-3.52-1.55-3.52H33.45c-1,0-1.55,1.18-1.55,3.52h-3V29.31Zm-16-1,3.85-14.45h4.83L35.67,28.29Zm9.31,0L38.44,22.7l2.27-8.86h.44l4,14.45Z" transform="translate(0)"/><path class="cls-2" d="M56.23,25.33l-2.18.09v1.95A1.7,1.7,0,0,0,56,29.31h.28v4.21H55.07q-5.84,0-5.83-5.8V19.29c0-3.64,2.12-5.45,6.36-5.45h.63v4c-1.45.09-2.18.62-2.18,1.58v2.23l2.18-.12Zm1.27-3.81,1.76-.11V19.46c0-.89-.59-1.41-1.76-1.56V13.84h.38c4.13,0,6.19,1.81,6.19,5.45v5.8l-6.57.19Zm0,7.79h5.34l-.17,4.21H57.5Z" transform="translate(0)"/><path class="cls-2" d="M78.8,17.7H76.73V33.52h-5V13.84H78.8Zm1.43-3.86H87.1V33.52H82.28V17.7h-2Z" transform="translate(0)"/><path class="cls-2" d="M94.31,38.8,89.49,39V13.66l4.82.18Zm1.37-5.38,0-4.22,2,.11q2.43,0,2.43-1.59V19.64c0-1.06-.82-1.58-2.45-1.58a4.54,4.54,0,0,0-.65,0,11.52,11.52,0,0,0-1.32.11v-4a15.15,15.15,0,0,1,2.87-.28c4.24,0,6.36,1.81,6.36,5.45v8.79q0,5.45-6.36,5.44Z" transform="translate(0)"/><path class="cls-2" d="M114.31,18.06c-1.5.08-2.25.61-2.25,1.58v8.08c0,1,.75,1.5,2.25,1.59v4.21h-.7c-4.24,0-6.37-1.81-6.37-5.44V19.29c0-3.64,2.13-5.45,6.37-5.45h.7Zm1.28,11.25c1.47-.06,2.2-.59,2.2-1.59V19.64c0-1-.73-1.53-2.2-1.58V13.84h.65c4.25,0,6.37,1.81,6.37,5.45v8.79q0,5.45-6.37,5.44h-.65Z" transform="translate(0)"/><path class="cls-2" d="M134,33.52h-9V13.84h5V29.31h4Zm6.4-4.21h1.58V37h-3.06c0-2.34-.51-3.52-1.54-3.52h-2.15V13.84h5.17Z" transform="translate(0)"/><path class="cls-2" d="M149.15,13.66V33.52h-4.82V13.66Zm1.37,8.09h1.92c1.51-.12,2.27-.88,2.27-2.29,0-1.05-.7-1.58-2.08-1.58h-2.11V13.66h2.64q6.36,0,6.36,5.45,0,3.81-2.67,4.55c2,.52,3,2,3,4.42q0,5.45-6.36,5.44h-3V29.31h2.11q2.43,0,2.43-1.59c0-1.29-.87-2-2.6-2.11h-1.94Z" transform="translate(0)"/><path class="cls-2" d="M169.26,25.33l-2.18.09v1.95a1.7,1.7,0,0,0,1.9,1.94h.28v4.21H168.1q-5.83,0-5.84-5.8V19.29c0-3.64,2.12-5.45,6.37-5.45h.63v4c-1.45.09-2.18.62-2.18,1.58v2.23l2.18-.12Zm1.27-3.81,1.75-.11V19.46c0-.89-.58-1.41-1.75-1.56V13.84h.38c4.13,0,6.19,1.81,6.19,5.45v5.8l-6.57.19Zm0,7.79h5.34l-.18,4.21h-5.16Z" transform="translate(0)"/><path class="cls-2" d="M179.49,17.88l.19-4.22h15.7l.19,4.22Zm10.79,1.49V33.52h-4.81V19.37Z" transform="translate(0)"/><path class="cls-2" d="M207.25,33.23a15.91,15.91,0,0,1-2.94.29q-6.36,0-6.36-5.44V26.32c0-3.64,2.12-5.45,6.36-5.45l2.94.1v3.87l-2.06-.1c-1.62,0-2.43.52-2.43,1.58v1.4c0,1.06.82,1.59,2.45,1.59.21,0,.44,0,.68,0s.78,0,1.36-.09Zm1.24-13.42c0-1-.83-1.58-2.51-1.58a56,56,0,0,0-6.1.37l-.17-4.36a14.67,14.67,0,0,1,4-.46c1.18,0,2.54.08,4.08.23q5.55.56,5.55,7V33.7l-4.82-.18Z" transform="translate(0)"/><path class="cls-2" d="M222.7,25.33l-2.18.09v1.95a1.7,1.7,0,0,0,1.9,1.94h.28v4.21h-1.16q-5.83,0-5.84-5.8V19.29c0-3.64,2.12-5.45,6.36-5.45h.64v4c-1.46.09-2.18.62-2.18,1.58v2.23l2.18-.12ZM224,21.52l1.76-.11V19.46c0-.89-.59-1.41-1.76-1.56V13.84h.39c4.12,0,6.19,1.81,6.19,5.45v5.8l-6.58.19Zm0,7.79h5.35l-.18,4.21H224Z" transform="translate(0)"/><path class="cls-2" d="M232.93,17.88l.19-4.22h15.7l.19,4.22Zm10.79,1.49V33.52H238.9V19.37Z" transform="translate(0)"/><path class="cls-2" d="M263.64,19.69a18.51,18.51,0,0,0-2.17.39v7.64c0,1,.73,1.49,2.17,1.59v4.21H263q-6.36,0-6.36-5.44V14q0-7,7-7.2v4.3c-1.44.37-2.17,1.45-2.17,3.25v2c.59-.17,1.31-.33,2.17-.49Zm1.51-12.88h4.94L269.91,11h-4.76Zm0,22.5c1.6,0,2.41-.58,2.41-1.59V21.06c-.2-.88-1-1.36-2.41-1.46V15.68c.49,0,.91-.07,1.26-.07q5.7,0,6,5.43v7q0,5.45-6.36,5.44h-.86Z" transform="translate(0)"/><path class="cls-2" d="M279.86,33.52h-5.1v-.31l10.45-19.55H290Zm-5.1-19.86,4.82.18v8.29l-4.82,9Zm15.37,19.86-4.82-.17V24.89l4.82-8.8Z" transform="translate(0)"/><path class="cls-2" d="M297.77,17.88h-5.06l-.19-4.22h5.25Zm0,15.64h-5.25l.19-4.21h5.06Zm0-8.08h-3.53V21.57h3.53Zm1.37,3.88c1.56-.07,2.34-.6,2.34-1.6s-.78-1.87-2.35-2.18V21.48c1.57-.29,2.35-1,2.35-2s-.69-1.58-2.07-1.58h-.28l0-4.22h.85q6.36,0,6.36,5.45,0,3.64-3,4.39c2,.51,3,2,3,4.58q0,5.45-6.36,5.44h-.8Z" transform="translate(0)"/><path class="cls-2" d="M315.76,25.61h-2.08v7.91h-5V13.84h5v7.91h2.08Zm1.42-3.86h2.06V13.84h4.81V33.52h-4.81V25.61h-2.06Z" transform="translate(0)"/><path class="cls-2" d="M333.44,25.33l-2.18.09v1.95a1.7,1.7,0,0,0,1.9,1.94h.28v4.21h-1.16q-5.83,0-5.84-5.8V19.29c0-3.64,2.12-5.45,6.37-5.45h.63v4c-1.45.09-2.18.62-2.18,1.58v2.23l2.18-.12Zm1.27-3.81,1.75-.11V19.46c0-.89-.58-1.41-1.75-1.56V13.84h.38c4.13,0,6.19,1.81,6.19,5.45v5.8l-6.57.19Zm0,7.79h5.34l-.18,4.21h-5.16Z" transform="translate(0)"/><path class="cls-2" d="M350.89,33.52H350q-6.36,0-6.36-5.44V19.29c0-3.64,2.12-5.45,6.36-5.45h.86v4.22c-1.6,0-2.4.57-2.4,1.58v8.08q0,1.52,2.4,1.59Zm1.5-19.68h5.06l-.17,4.22h-4.89Zm0,15.47h4.89l.17,4.21h-5.06Z" transform="translate(0)"/></svg>