<svg id="Layer_1" data-name="Layer 1" xmlns="http://www.w3.org/2000/svg" viewBox="0 0 234.05 26.51"><defs><style>.cls-1{fill:#fff;}</style></defs><title>logoup</title><path class="cls-1" d="M12.85,11.21V31.72l-4.16.15V11.06Zm1,7.21,4.44-7.5,4.63.16L16.53,21.46l6.39,10.39L18.29,32l-4.44-7.5Z" transform="translate(-8.69 -5.5)"/><path class="cls-1" d="M31,14.58h-.85a1.15,1.15,0,0,0-1.29,1.32V27a1.15,1.15,0,0,0,1.29,1.32H31v3.52H29.38q-4.57,0-4.57-4.55V15.61q0-4.54,4.57-4.55H31Zm1.19,13.77H33A1.15,1.15,0,0,0,34.33,27V15.9A1.15,1.15,0,0,0,33,14.58h-.89V11.06h1.62q4.57,0,4.57,4.55V27.32q0,4.55-4.57,4.55H32.15Z" transform="translate(-8.69 -5.5)"/><path class="cls-1" d="M44.35,11.06V31.87h-4V11.06Zm1,8.79h2.51c1.26-.09,1.89-.68,1.89-1.75V15.9c0-.88-.58-1.32-1.73-1.32H45.31V11.06h3.11c3.54,0,5.3,1.52,5.3,4.55V18.1c0,1.82-.74,2.94-2.22,3.35A3.13,3.13,0,0,1,54,24.83v2.49q0,4.55-5.31,4.55h-3.4V28.35H48c1.35,0,2-.44,2-1.32v-2.2c0-1.07-.72-1.66-2.17-1.75H45.31Z" transform="translate(-8.69 -5.5)"/><path class="cls-1" d="M62.16,14.58h-.85A1.15,1.15,0,0,0,60,15.9V27a1.15,1.15,0,0,0,1.29,1.32h.85v3.52H60.58Q56,31.87,56,27.32V15.61q0-4.54,4.57-4.55h1.58Zm1.19,13.77h.89A1.15,1.15,0,0,0,65.53,27V15.9a1.15,1.15,0,0,0-1.29-1.32h-.89V11.06H65q4.57,0,4.57,4.55V27.32q0,4.55-4.57,4.55H63.35Z" transform="translate(-8.69 -5.5)"/><path class="cls-1" d="M75.55,11.06V31.87h-4V11.06Zm1.14,0h3.08q5.3,0,5.3,4.55v3.8c0,2.83-1.77,4.34-5.3,4.55H76.69V20.44H79c1.34,0,2-.44,2-1.32V15.9c0-.88-.68-1.32-2-1.32H76.69Z" transform="translate(-8.69 -5.5)"/><path class="cls-1" d="M91.22,11.21V31.72l-4.16.15V11.06Zm1,7.21,4.44-7.5,4.63.16L94.9,21.46l6.39,10.39L96.66,32l-4.44-7.5Z" transform="translate(-8.69 -5.5)"/><path class="cls-1" d="M107.51,31.87h-4.33l10.25-20.81h4.19Zm-.23-9.94-4,7.8V11.06l4,.15Zm6.24-.92,4-7.88V31.87l-4-.15Z" transform="translate(-8.69 -5.5)"/><path class="cls-1" d="M125.31,23.08H123.6v8.79h-4.16V11.06h4.16v8.79h1.71Zm1.13-3.23h2.08V11.06H133V31.87h-4.45V23.08h-2.08Z" transform="translate(-8.69 -5.5)"/><path class="cls-1" d="M139,11.06V31.87h-4V11.06Zm1.2,0h6.71l.14,3.52h-6.85Z" transform="translate(-8.69 -5.5)"/><path class="cls-1" d="M156.8,16.21l-3.38-5.45,3.44-2.14,2.77,5.76Zm5.86,0-3.38-5.45,3.44-2.14,2.77,5.76Z" transform="translate(-8.69 -5.5)"/><path class="cls-1" d="M175.88,24.42l-3.18.22q-5.31,0-5.31-4.54V11l4-.15v8.79q0,1.32,2,1.32l2.46-.19Zm1-13.25,4-.15V26q0,5.41-5,5.86c-1.37.13-2.59.19-3.64.19a12.84,12.84,0,0,1-3.43-.38l.16-3.19c1.87.1,3.68.16,5.44.16s2.46-.44,2.46-1.32Z" transform="translate(-8.69 -5.5)"/><path class="cls-1" d="M191.86,11.06,187,31.87h-4l4.76-20.81Zm-.54,7,1.49-7h1.05l4.62,20.81h-4Z" transform="translate(-8.69 -5.5)"/><path class="cls-1" d="M204.37,11.06V31.87h-4V11.06Zm1.2,0h6.71l.14,3.52h-6.85Zm0,8.79H211v3.23h-5.39Zm0,8.5h6.85l-.14,3.52h-6.71Z" transform="translate(-8.69 -5.5)"/><path class="cls-1" d="M218.75,31.87h-4.33l10.25-20.81h4.19Zm-.23-9.94-4,7.8V11.06l4,.15ZM219.1,5.5c0,1.46.85,2.2,2.54,2.2s2.53-.74,2.53-2.2h2.43c0,3.12-1.65,4.69-5,4.69s-5-1.57-5-4.69ZM224.76,21l4-7.88V31.87l-4-.15Z" transform="translate(-8.69 -5.5)"/><path class="cls-1" d="M230.68,14.38l2.76-5.76,3.45,2.14-3.4,5.45Zm5.86,0,2.76-5.76,3.45,2.14-3.4,5.45Z" transform="translate(-8.69 -5.5)"/></svg>