<?xml version="1.0" encoding="utf-8"?>
<!-- Generator: Adobe Illustrator 22.0.0, SVG Export Plug-In . SVG Version: 6.00 Build 0)  -->
<svg version="1.1" id="Layer_1" xmlns="http://www.w3.org/2000/svg" xmlns:xlink="http://www.w3.org/1999/xlink" x="0px" y="0px"
	 viewBox="0 0 1641.1 1255.2" style="enable-background:new 0 0 1641.1 1255.2;" xml:space="preserve">
<style type="text/css">
	.st0{fill:none;stroke:#FFFFFF;stroke-width:40;stroke-linecap:round;stroke-linejoin:round;}
</style>
<title>mol</title>
<g id="icons">
	<g id="Layer_5">
		<g id="hands">
			<path class="st0" d="M196,1224.2c0,0-176-117-176-301c0-123.1,60-318,61-429s-0.1-181.9,46-189c52-8,115,14,118,473
				c109,1,157,85,157,85"/>
			<path class="st0" d="M218.4,416.7c0,0,229.6-479.5,321.6-381.5c52.3,55.7-46,148-106,269s-107,236-107,236"/>
			<path class="st0" d="M546.3,117.7C590.5,64.3,633.3-3,684,43.2c34,31,0.8,112.6-32.1,164c-21.1,33-45.8,68.8-67.9,107
				c-89,154-136,292-136,292"/>
			<path class="st0" d="M651.9,207.2c40.2-40.6,77-95.9,108.1-37c28,53-47.9,162.7-106,280c-60,121-87,207-87,207"/>
			<path class="st0" d="M701.5,358.3c22.5-35.1,46.8-47.2,70-26.3c46.8,42-15.7,133.7-55.9,237.3c-40.2,103.6-51.6,136.9-38.8,206.5
				C714,903.2,734,973.2,707,1063.2c-43.6,145.2-108,172-108,172"/>
			<path class="st0" d="M1445.1,1222.2c0,0,176-117,176-301c0-123.1-60-318-61-429s0.2-181.9-46-189c-52-8-115,14-118,473
				c-109,1-157,85-157,85"/>
			<path class="st0" d="M1422.8,414.7c0,0-229.6-479.5-321.6-381.5c-52.3,55.7,46,148,106,269s107,236,107,236"/>
			<path class="st0" d="M1094.8,115.7c-44.2-53.4-87-120.7-137.7-74.5c-34,31-0.8,112.6,32.1,164c21.1,33,45.8,68.8,67.9,107
				c89,154,136,292,136,292"/>
			<path class="st0" d="M989.3,205.2c-40.2-40.6-77-95.9-108.1-37c-28,53,47.9,162.7,106,280c60,121,87,207,87,207"/>
			<path class="st0" d="M939.7,356.3c-22.5-35.1-46.8-47.2-70-26.3c-46.8,42,15.7,133.7,55.9,237.3
				c40.2,103.6,51.6,136.9,38.8,206.5c-37.2,127.4-57.2,197.4-30.2,287.4c43.6,145.2,108,172,108,172"/>
		</g>
	</g>
</g>
</svg>
