<svg id="Layer_1" data-name="Layer 1" xmlns="http://www.w3.org/2000/svg" viewBox="0 0 108.63 33.28"><title>NOFIX</title><path d="M188.09,7.17h6.71l16.4,33.28h-6.93Zm6.57,33.05-6.43.23v-30l6.43,12.6Zm10-32.81,6.42-.24V37l-6.42-12.47Z" transform="translate(-188.09 -7.17)"/><path d="M224,12.8h-1.36a1.84,1.84,0,0,0-2.06,2.11V32.72a1.85,1.85,0,0,0,2.06,2.11H224v5.62h-2.53q-7.3,0-7.31-7.26V14.44q0-7.27,7.31-7.27H224Zm1.9,22h1.43a1.84,1.84,0,0,0,2.06-2.11V14.91a1.84,1.84,0,0,0-2.06-2.11h-1.43V7.17h2.6q7.32,0,7.32,7.27V33.19q0,7.26-7.32,7.26h-2.6Z" transform="translate(-188.09 -7.17)"/><path d="M245.38,7.17V40.45H239V7.17Zm1.92,0H258l.24,5.63h-11Zm0,14.06h8.62v5.16H247.3Z" transform="translate(-188.09 -7.17)"/><path d="M267.88,7.17V40.45h-6.43V7.17Z" transform="translate(-188.09 -7.17)"/><path d="M283,30l-5,10.5h-6.94l8.09-16.64L271.06,7.17H278l5,10.5Zm1.69-12.12,5.15-10.66h6.92l-8,16.64,8,16.64h-6.92l-5.15-10.66Z" transform="translate(-188.09 -7.17)"/></svg>