<?xml version="1.0" encoding="utf-8"?>
<!-- Generator: Adobe Illustrator 21.0.0, SVG Export Plug-In . SVG Version: 6.00 Build 0)  -->
<svg version="1.1" id="Слой_2" xmlns="http://www.w3.org/2000/svg" xmlns:xlink="http://www.w3.org/1999/xlink" x="0px" y="0px"
	 viewBox="0 0 630.3 727.8" style="enable-background:new 0 0 630.3 727.8;" xml:space="preserve">
<style type="text/css">
	.st0{fill:#DFD6CA;stroke:#000000;stroke-miterlimit:10;}
	.st1{fill:none;stroke:#000000;stroke-width:24;stroke-miterlimit:10;}
</style>
<polygon class="st0" points="12,188.9 315.1,13.9 618.3,188.9 618.3,538.9 315.1,713.9 12,538.9 "/>
<title>ooley</title>
<polygon class="st1" points="618.3,188.9 315.1,13.9 12,188.9 12,538.9 315.1,713.9 618.3,538.9 "/>
<path d="M358.4,512.7c-7.4,11.1-17.4,20.4-29.1,26.9c-12.1,6.8-25.5,10.9-39.3,12.1l-5.2,0.3h-5.3c-1.8-0.1-3.5-0.2-5.3-0.3
	c-1.8-0.2-3.5-0.3-5.2-0.5c-7-0.9-13.9-2.6-20.6-4.9c-27.2-9.7-49.1-30.5-60.1-57.2c-2.7-6.6-4.7-13.4-5.9-20.3
	c-0.3-1.7-0.5-3.5-0.8-5.2s-0.4-3.5-0.5-5.2l-0.2-5.3v-5.2c0.5-13.8,3.9-27.4,10.1-39.8c3-6,6.8-11.7,11.1-16.9
	c4.2-5.1,9.1-9.6,14.4-13.5c-3.5,5.4-6.6,11-9.2,16.8c-2.6,5.6-4.6,11.5-6.2,17.5c-3,11.6-4,23.6-2.9,35.5l0.5,4.4l0.7,4.3l0.9,4.3
	c0.4,1.4,0.7,2.8,1.1,4.2c1.5,5.5,3.6,11,6.1,16.1c10.1,20.8,27.3,37.2,48.6,46.2c5.3,2.2,10.8,4,16.4,5.3c1.4,0.3,2.8,0.6,4.3,0.9
	s2.9,0.4,4.3,0.7l4.3,0.5l4.4,0.3c12,0.5,23.9-1.1,35.3-4.7c5.9-1.9,11.6-4.2,17.1-7C347.8,519.8,353.3,516.4,358.4,512.7z"/>
<path d="M383,457.2c-7.2,7.6-16.1,13.3-26,16.7c-10.3,3.5-21.2,4.8-32,3.6c-11.1-1.2-21.8-4.7-31.3-10.4
	C274,455.5,260.3,436,256,413.6c-2.1-10.9-1.8-22.2,0.9-33c2.6-10.6,7.5-20.4,14.3-28.9c6.6-8.2,15-14.6,24.6-18.8
	c-3.4,3.7-6.5,7.5-9.3,11.6c-2.7,3.9-5,8.1-7,12.4c-3.9,8.3-6.3,17.2-7.1,26.3c-0.8,8.8-0.1,17.7,2.2,26.2
	c4.5,16.9,14.8,31.7,29.2,41.6c7.3,5,15.4,8.7,23.9,11c8.9,2.3,18.1,3.1,27.2,2.3c4.8-0.4,9.5-1.2,14.1-2.4
	C373.7,460.8,378.4,459.1,383,457.2z"/>
<path d="M409.8,406.4c-5.8,5.1-12.9,8.7-20.5,10.4c-7.9,1.8-16.2,1.8-24.1-0.1c-8.1-1.9-15.8-5.6-22.4-10.7
	c-13.5-10.6-21.8-26.5-22.6-43.6c-0.4-8.4,1-16.7,4.2-24.4c3.1-7.5,7.8-14.3,13.9-19.7c5.8-5.2,12.8-8.9,20.3-10.7
	c-1.3,1.4-2.7,2.6-4,3.9l-3.6,4c-1.1,1.4-2.2,2.8-3.2,4.2s-1.9,2.9-2.8,4.3c-3.4,5.7-5.8,11.8-7.1,18.3c-5.4,25.3,7.8,50.8,31.5,61
	c6,2.6,12.5,4.2,19.1,4.8c1.7,0.1,3.4,0.2,5.1,0.2s3.5-0.1,5.3-0.2l5.4-0.6C406.1,407,408,406.7,409.8,406.4z"/>
<path d="M450.3,368.3c-5.1,3-10.8,4.7-16.7,4.8c-6.2,0.2-12.3-1-17.9-3.5c-5.8-2.6-11-6.4-15.1-11.2c-8.5-9.8-12.4-22.9-10.5-35.8
	c0.9-6.3,3.2-12.3,6.7-17.6c3.4-5.2,7.9-9.5,13.2-12.6c5.1-3,10.8-4.7,16.7-4.9c-4.6,2.8-8.8,6.3-12.4,10.3c-3.3,3.7-6,8-7.9,12.5
	c-7.6,17.9-1.5,38.7,14.5,49.7c4.1,2.8,8.6,5,13.4,6.3C439.5,367.8,444.9,368.4,450.3,368.3z"/>
<path d="M493.8,290.9c3.7,0.1,7.1,1.6,9.7,4.2c2.6,2.6,4.6,5.8,5.9,9.2c4.9,14,2.1,29.6-7.2,41.1c-2.4,2.8-5.3,5.1-8.7,6.7
	c-3.3,1.6-7.1,1.8-10.6,0.7c3.3-0.1,6.5-1.3,9.1-3.2c2.5-1.9,4.7-4.3,6.4-7c6.8-11,9.1-24.2,6.4-36.9c-0.7-3.1-1.9-6.1-3.6-8.7
	C499.5,294.3,496.9,292.1,493.8,290.9z"/>
<path d="M136.5,584.1l3.8-13c1.5-4.3,2.8-8.6,4.4-12.9l2.4-6.4l1.2-3.2l1.3-3.2l2.7-6.4l3-6.3c4.1-8.6,8.8-17,14.1-25
	c1.4-2,2.8-4.1,4.2-6.1s3-4.1,4.7-6s3.4-4,5.2-6c1-1,1.9-2,3-3l1.7-1.6l1-0.8l0.5-0.4l0.9-0.7l22.3,40.2l0.2-0.2c0,0-0.1,0-0.2,0
	h-0.4c-0.3,0.1-0.7,0.2-1,0.3c-0.7,0.2-1.5,0.5-2.3,0.8c-1.6,0.7-3.3,1.4-5,2.2s-3.4,1.8-5.2,2.7s-3.5,2-5.2,3
	c-7.1,4.4-13.9,9.4-20.3,14.7l-5,4.2l-4.8,4.4l-2.4,2.2l-2.3,2.3l-4.7,4.6c-3.1,3.1-6.1,6.4-9.2,9.7L136.5,584.1z"/>
<path d="M259.5,255.1c-8.9-8.5-17.1-17.6-24.6-27.3c-7.6-9.7-14.2-20.1-19.8-31.1c-2.8-5.5-5.1-11.3-7-17.2
	c-1.9-6-3.1-12.1-3.6-18.3c-0.5-6.3,0-12.6,1.5-18.8c1.5-6.2,4.2-12,7.8-17.3c3.6-5.2,7.9-9.9,12.8-13.9c4.9-4,10.1-7.4,15.7-10.4
	c5.5-2.9,11.2-5.5,17-7.6c5.8-2.2,11.7-4.1,17.7-5.7c12-3.3,24.4-5.1,36.9-5.4c12.6-0.3,25.1,1.7,37,5.8
	c11.9,4.3,22.8,10.8,32.2,19.3c9.3,8.4,17.1,18.3,23.3,29.2c6.1,10.8,11,22.3,14.5,34.2c3.6,11.9,6,24,7.4,36.3
	c1.4,12.3,1.7,24.7,1,37c-0.7,12.4-2.7,24.6-6.1,36.5c-1.7,6-4,11.7-6.7,17.3c-2.7,5.6-6.4,10.7-10.8,15.1c-2.2,2.2-4.8,4-7.6,5.4
	c-2.8,1.4-5.9,2.3-9,2.5c-1.5,0.1-3.1,0.1-4.7-0.1c-1.5-0.2-3-0.5-4.5-0.9c-2.9-0.9-5.8-2.1-8.4-3.7c2.7,1.5,5.5,2.6,8.5,3.4
	c1.5,0.4,3,0.6,4.5,0.7c1.5,0.1,3,0.1,4.5-0.1c3-0.3,5.9-1.3,8.5-2.7c2.6-1.5,5-3.3,7.1-5.5c4.2-4.4,7.5-9.5,10-15
	c2.5-5.5,4.6-11.2,6.1-17.1c3-11.8,4.8-23.8,5.2-36c0.5-12.1,0-24.3-1.6-36.4c-0.8-6-1.8-12-3.1-17.9c-1.3-5.9-2.8-11.8-4.6-17.6
	c-3.6-11.6-8.4-22.7-14.5-33.1c-6-10.4-13.6-19.9-22.5-27.9c-8.9-8-19.2-14.2-30.5-18.2c-11.3-3.9-23.3-5.8-35.2-5.6
	c-12.1,0.2-24.1,1.9-35.7,5.1c-5.8,1.5-11.7,3.3-17.3,5.4c-5.7,2-11.2,4.4-16.6,7.2c-5.3,2.8-10.4,6-15.1,9.7
	c-4.7,3.7-8.8,8-12.2,12.9c-3.4,4.8-6,10.3-7.5,16c-1.5,5.8-2.1,11.7-1.8,17.7c0.7,12,4.4,23.7,9.5,34.7c5.2,11,11.4,21.6,18.7,31.4
	c3.6,4.9,7.3,9.8,11.3,14.5C251.1,246.2,255.2,250.8,259.5,255.1z"/>
<path d="M86.7,254.2c-2.2,8.1-3.5,16.3-4,24.7c-0.5,8.3,0.3,16.6,2.3,24.7c2,8,5.3,15.7,9.7,22.7c4.5,6.9,9.9,13.2,16.2,18.6
	c6.3,5.4,13.1,10.1,20.3,14c3.6,2,7.3,3.8,11.1,5.5c1.8,0.9,3.8,1.6,5.7,2.5s3.8,1.5,5.8,2.2c15.6,5.7,31.7,9.7,48.1,12
	c8.2,1.2,16.5,2.1,24.7,2.7c8.3,0.6,16.6,0.8,24.9,0.8c16.6,0,33.2-1.3,49.7-3.9c8.2-1.3,16.3-3,24.4-5c8-2,15.9-4.6,23.6-7.7
	c7.6-3,14.9-7,21.6-11.8c0.8-0.6,1.6-1.3,2.4-1.9c0.8-0.6,1.6-1.3,2.3-2l2.2-2.1l2-2.3c2.6-3.1,4.6-6.6,5.9-10.4
	c1.2-3.9,1.5-7.9,1-11.9c-0.5-4.1-1.5-8.1-3-11.9c-1.5-3.9-3.2-7.6-5.3-11.2c-2.1-3.6-4.3-7.1-6.8-10.5c-9.8-13.5-21.8-25.3-34.5-36
	c-6.4-5.3-13-10.4-19.9-15.2c-6.9-4.8-13.9-9.3-21-13.5c-14.3-8.5-29.3-15.9-44.8-22.1c-7.7-3.1-15.5-5.9-23.5-8.4
	c-7.9-2.4-16-4.4-24.1-6c-4.1-0.8-8.2-1.4-12.2-1.9c-4.1-0.5-8.2-0.9-12.3-1.1c-8.2-0.4-16.5,0-24.7,1.3c-8.2,1.2-16.1,3.7-23.6,7.2
	c-7.5,3.6-14.3,8.4-20.2,14.2c-5.9,5.9-10.9,12.6-14.7,20C91.9,238.3,88.9,246.1,86.7,254.2z M86.2,254.1c2.1-8.1,5.1-16,8.9-23.5
	c3.8-7.5,8.6-14.5,14.4-20.7c5.8-6.2,12.6-11.3,20.2-15.3c7.6-3.9,15.6-6.7,24-8.4c8.3-1.6,16.8-2.4,25.3-2.1
	c4.2,0.1,8.5,0.4,12.7,0.8s8.4,1.1,12.6,1.8c16.6,3.2,32.8,8.2,48.4,14.9c30.9,13.5,59.6,31.5,85.2,53.4
	c6.4,5.4,12.5,11.1,18.4,17.2c5.9,6,11.4,12.4,16.4,19.1c5.1,6.7,9.4,14.1,12.7,21.9c1.6,4,2.8,8.1,3.4,12.4c0.6,4.3,0.4,8.8-0.8,13
	c-1.3,4.2-3.4,8.1-6.1,11.5l-2.1,2.5c-0.8,0.8-1.5,1.5-2.3,2.3c-0.8,0.8-1.6,1.5-2.4,2.2c-0.8,0.7-1.6,1.4-2.5,2.1l-2.6,1.9
	c-0.9,0.6-1.8,1.2-2.7,1.8c-1.8,1.2-3.6,2.2-5.5,3.3s-3.8,2-5.7,3s-3.8,1.9-5.8,2.7c-15.6,6.7-32.1,10.9-48.7,13.7
	c-16.6,2.8-33.5,4.3-50.4,4.5c-16.9,0.2-33.8-0.9-50.5-3.4c-8.3-1.3-16.7-2.9-24.8-5c-8.2-2.1-16.3-4.7-24.2-7.8
	c-2-0.8-4-1.5-5.9-2.4s-3.9-1.7-5.8-2.6c-3.8-1.8-7.6-3.8-11.2-6c-7.3-4.3-14.2-9.4-20.4-15.3c-6.2-5.8-11.6-12.5-15.9-19.8
	c-4.3-7.3-7.4-15.3-9.1-23.6c-1.7-8.3-2.3-16.7-1.7-25.2C82.6,270.5,84,262.2,86.2,254.1L86.2,254.1z"/>
<path d="M512.5,248.5c-9.2-0.1-18.4,0.7-27.2,3.3c-4.3,1.3-8.5,3-12.4,5.3c-3.8,2.2-7.3,5.1-10.2,8.4c-5.6,6.7-9.1,14.9-9.8,23.6
	c-0.5,4.4-0.5,8.7-0.2,13.1c0.3,4.4,1,8.8,1.9,13.1c1.9,8.7,4.6,17.3,8.2,25.5c3.5,8.3,7.7,16.2,12.4,23.9
	c4.7,7.6,10.2,14.7,16.4,21.2c3.1,3.1,6.4,6,10,8.4c3.6,2.4,7.4,4.2,11.2,4.7c1.9,0.2,3.9,0,5.7-0.5c1-0.3,2-0.6,2.9-0.9
	c1-0.4,1.9-0.8,2.8-1.3c3.8-2.1,7.4-4.6,10.6-7.6c6.6-6.1,12.4-13,17.3-20.5c5-7.6,9.3-15.6,12.8-23.9c3.6-8.4,6.2-17.1,7.8-26
	c1.7-8.9,2-18,0.7-26.9c-0.7-4.4-2-8.8-3.8-12.9c-1.8-4.1-4.3-8-7.3-11.3c-3-3.4-6.6-6.3-10.4-8.7c-3.9-2.3-8.1-4.2-12.5-5.6
	C530.9,249.8,521.6,248.8,512.5,248.5z M512.5,247.7c4.6,0.1,9.2,0.5,13.8,1.2c1.2,0.1,2.3,0.3,3.4,0.5s2.3,0.4,3.4,0.6l3.4,0.8
	c1.1,0.3,2.2,0.6,3.3,1c8.8,2.7,17.4,7.1,23.9,13.9c3.3,3.4,6,7.3,8.2,11.5c2.1,4.2,3.7,8.7,4.6,13.4c1.8,9.3,1.9,18.8,0.3,28.1
	c-1.5,9.2-4,18.3-7.5,27c-3.4,8.7-7.7,17.1-12.7,25c-5,8-10.9,15.4-17.8,22c-3.5,3.4-7.4,6.3-11.7,8.7c-1.1,0.6-2.2,1.1-3.4,1.7
	c-1.2,0.5-2.4,0.9-3.6,1.3c-2.6,0.8-5.3,1.1-8,0.9c-5.4-0.5-10.1-2.8-14.3-5.4c-4.1-2.6-7.9-5.6-11.3-9c-6.8-6.7-12.8-14-18.1-21.9
	c-5.2-7.9-9.7-16.2-13.4-24.9c-1.8-4.4-3.5-8.8-4.9-13.3c-1.4-4.5-2.6-9.2-3.4-13.9c-0.9-4.7-1.4-9.5-1.5-14.3
	c-0.1-4.8,0.2-9.7,1.1-14.5c0.9-4.8,2.4-9.5,4.6-13.9c2.2-4.4,5.2-8.3,8.7-11.7c3.5-3.3,7.5-6,11.9-8.1c4.3-2,8.7-3.5,13.3-4.5
	c4.5-1,9.2-1.7,13.8-1.9C503.2,247.6,507.8,247.6,512.5,247.7L512.5,247.7z"/>
</svg>
