<?xml version="1.0" encoding="utf-8"?>
<!-- Generator: Adobe Illustrator 22.0.0, SVG Export Plug-In . SVG Version: 6.00 Build 0)  -->
<svg version="1.1" id="Layer_1" xmlns="http://www.w3.org/2000/svg" xmlns:xlink="http://www.w3.org/1999/xlink" x="0px" y="0px"
	 viewBox="0 0 1628.3 1640.5" style="enable-background:new 0 0 1628.3 1640.5;" xml:space="preserve">
<style type="text/css">
	.st0{fill:none;stroke:#FFFFFF;stroke-width:40;stroke-linecap:round;stroke-linejoin:round;}
	.st1{fill:none;stroke:#FFFFFF;stroke-width:40;stroke-miterlimit:10;}
</style>
<title>printer</title>
<g id="icons">
	<g id="printer">
		<path class="st0" d="M1300.4,846.9v714.7c-0.1,32.5-26.4,58.8-58.9,58.9H386.8c-32.5-0.1-58.8-26.4-58.9-58.9V847.2L1300.4,846.9z
			"/>
		<path class="st1" d="M327.9,413.5V78.9c0.1-32.5,26.4-58.8,58.9-58.9h854.7c32.5,0.1,58.8,26.4,58.9,58.9v334.6"/>
		<path class="st1" d="M1300.4,1280.4h211.2c53.2,0,96.7-43.5,96.7-96.7V510.2c0-53.2-43.5-96.7-96.7-96.7H116.7
			C63.5,413.5,20,457,20,510.2v673.5c0,53.2,43.5,96.7,96.7,96.7h211.2"/>
		<line class="st0" x1="569.1" y1="1049.2" x2="1058.1" y2="1049.2"/>
		<line class="st0" x1="570.2" y1="1233.7" x2="1059.2" y2="1233.7"/>
		<line class="st0" x1="570.2" y1="1418.2" x2="1059.2" y2="1418.2"/>
		<line class="st0" x1="183.4" y1="572.4" x2="216.7" y2="572.4"/>
	</g>
</g>
</svg>
