<?xml version="1.0" encoding="utf-8"?>
<!-- Generator: Adobe Illustrator 22.0.0, SVG Export Plug-In . SVG Version: 6.00 Build 0)  -->
<svg version="1.1" id="Layer_1" xmlns="http://www.w3.org/2000/svg" xmlns:xlink="http://www.w3.org/1999/xlink" x="0px" y="0px"
	 viewBox="0 0 1638.2 1583.6" style="enable-background:new 0 0 1638.2 1583.6;" xml:space="preserve">
<style type="text/css">
	.st0{fill:none;stroke:#FFFFFF;stroke-width:40;stroke-linecap:round;stroke-linejoin:round;}
</style>
<title>relax</title>
<g id="icons">
	<g id="relax">
		<path class="st0" d="M589.4,259.1c-36,29.1-72.8,56.4-111.4,86.7C228.2,541.5,37.1,762.3,20.7,1072.1
			c-34.8,656.4,1297.1,563.1,1474.3,253.1c297.4-620.1,1.5-1259.5-303.7-1299.2c-155.6-20.2-274.6,12.9-383,73.4"/>
		<path class="st0" d="M325,825c0,0,368.5,195.4,656.6-46.3s174.6-564.2,174.6-564.2"/>
		<path class="st0" d="M982.4,978.2c0,0,27.7,91.7,0,248.9c-56.9,322.7-335.3,328-335.3,328"/>
	</g>
</g>
</svg>
