<?xml version="1.0" encoding="utf-8"?>
<!-- Generator: Adobe Illustrator 22.0.0, SVG Export Plug-In . SVG Version: 6.00 Build 0)  -->
<svg version="1.1" id="Layer_1" xmlns="http://www.w3.org/2000/svg" xmlns:xlink="http://www.w3.org/1999/xlink" x="0px" y="0px"
	 viewBox="0 0 1642 1641" style="enable-background:new 0 0 1642 1641;" xml:space="preserve">
<style type="text/css">
	.st0{fill:none;stroke:#FFFFFF;stroke-width:40;stroke-miterlimit:10;}
	.st1{fill:none;stroke:#FFFFFF;stroke-miterlimit:10;}
</style>
<title>sbox2</title>
<g id="icons">
	<g id="Layer_3">
		<path class="st0" d="M70,21h701c27.6,0,50,22.4,50,50v1500c0,27.6-22.4,50-50,50H70c-27.6,0-50-22.4-50-50V71
			C20,43.4,42.4,21,70,21z"/>
		<path class="st0" d="M344.8,1041.8h151.3c27.6,0,50,22.4,50,50l0,0v102c0,55.2-44.8,100-100,100h-51.3c-55.2,0-100-44.8-100-100
			v-102C294.8,1064.2,317.2,1041.8,344.8,1041.8z"/>
		<path class="st0" d="M485.3,1041.8v-87.3c-0.1-35-28.5-63.4-63.5-63.5l0,0c-36.5,0.1-66,29.7-66.1,66.1v84.7"/>
		<circle class="st1" cx="420.5" cy="1204.8" r="18.2"/>
		<line class="st0" x1="245.5" y1="172" x2="595.5" y2="172"/>
		<line class="st0" x1="245.5" y1="286" x2="595.5" y2="286"/>
		<line class="st0" x1="245.5" y1="387" x2="595.5" y2="387"/>
		<path class="st0" d="M871,20h701c27.6,0,50,22.4,50,50v1500c0,27.6-22.4,50-50,50H871c-27.6,0-50-22.4-50-50V70
			C821,42.4,843.4,20,871,20z"/>
		<path class="st0" d="M1145.8,1040.8h151.3c27.6,0,50,22.4,50,50v102c0,55.2-44.8,100-100,100h-51.3c-55.2,0-100-44.8-100-100v-102
			C1095.8,1063.2,1118.2,1040.8,1145.8,1040.8z"/>
		<path class="st0" d="M1286.3,1040.8v-87.3c-0.1-35-28.5-63.4-63.5-63.5l0,0c-36.5,0.1-66,29.7-66.1,66.1v84.7"/>
		<circle class="st1" cx="1221.5" cy="1203.8" r="18.2"/>
		<line class="st0" x1="1046.5" y1="171" x2="1396.5" y2="171"/>
		<line class="st0" x1="1046.5" y1="285" x2="1396.5" y2="285"/>
		<line class="st0" x1="1046.5" y1="386" x2="1396.5" y2="386"/>
	</g>
</g>
</svg>
