<?xml version="1.0" encoding="utf-8"?>
<!-- Generator: Adobe Illustrator 22.0.0, SVG Export Plug-In . SVG Version: 6.00 Build 0)  -->
<svg version="1.1" id="Layer_1" xmlns="http://www.w3.org/2000/svg" xmlns:xlink="http://www.w3.org/1999/xlink" x="0px" y="0px"
	 viewBox="0 0 1640 1640" style="enable-background:new 0 0 1640 1640;" xml:space="preserve">
<style type="text/css">
	.st0{fill:none;stroke:#FFFFFF;stroke-width:40;stroke-miterlimit:10;}
</style>
<title>talk</title>
<g id="icons">
	<g id="Layer_5">
		<path class="st0" d="M70,20h1500c27.6,0,50,22.4,50,50v1500c0,27.6-22.4,50-50,50H70c-27.6,0-50-22.4-50-50V70
			C20,42.4,42.4,20,70,20z"/>
		<path class="st0" d="M493,1602V436c0-6.6,4.3-12,9.5-12h635.1c5.2,0,9.5,5.4,9.5,12v1166"/>
		<polygon class="st0" points="941.5,768.7 941.5,628.3 820,558.2 698.5,628.3 698.5,768.7 820,838.8 		"/>
		<line class="st0" x1="1052.2" y1="1116" x2="1052.2" y2="1231"/>
	</g>
</g>
</svg>
