<?xml version="1.0" encoding="utf-8"?>
<!-- Generator: Adobe Illustrator 22.0.0, SVG Export Plug-In . SVG Version: 6.00 Build 0)  -->
<svg version="1.1" id="Layer_1" xmlns="http://www.w3.org/2000/svg" xmlns:xlink="http://www.w3.org/1999/xlink" x="0px" y="0px"
	 viewBox="0 0 1586.5 1640" style="enable-background:new 0 0 1586.5 1640;" xml:space="preserve">
<style type="text/css">
	.st0{fill:none;stroke:#FFFFFF;stroke-width:40;stroke-linejoin:round;}
	.st1{fill:none;stroke:#FFFFFF;stroke-width:40;stroke-miterlimit:10;}
	.st2{fill:none;stroke:#FFFFFF;stroke-width:40;stroke-linecap:round;stroke-linejoin:round;}
</style>
<title>tea</title>
<g id="icons">
	<g id="tea">
		<path class="st0" d="M1315.6,606.7v495.4c0,284.9-261.7,517.9-581.5,517.9H601.5C281.6,1620,20,1386.9,20,1102.1V606.7H1315.6z"/>
		<path class="st1" d="M1315.6,1217.1c138.6,0,250.9-112.3,250.9-250.9s-112.3-250.9-250.9-250.9"/>
		<path class="st2" d="M212.2,20c-224,224,232.6,230,0,462.6"/>
		<path class="st2" d="M673.5,20c-224,224,232.7,230,0,462.6"/>
		<path class="st2" d="M1120.2,20c-224,224,232.7,230,0,462.6"/>
		<path class="st1" d="M13.4,802c61.6-26,132.5,2.8,158.5,64.4s-2.8,132.5-64.4,158.5c-29.2,12.3-62.1,12.7-91.5,1.1"/>
		<circle class="st1" cx="302.5" cy="913.5" r="121"/>
		<circle class="st1" cx="544.5" cy="913.5" r="121"/>
		<circle class="st1" cx="792.5" cy="913.5" r="121"/>
		<circle class="st1" cx="1034.5" cy="913.5" r="121"/>
		<path class="st1" d="M1321.6,1025.8c-62,24.9-132.5-5.3-157.3-67.3c-24.9-62,5.3-132.5,67.3-157.3c28.9-11.6,61.1-11.6,90,0"/>
	</g>
</g>
</svg>
