<?xml version="1.0" standalone="no"?><!-- Generator: Gravit.io --><svg xmlns="http://www.w3.org/2000/svg" xmlns:xlink="http://www.w3.org/1999/xlink" style="isolation:isolate" viewBox="0 0 500 500" width="500" height="500"><defs><clipPath id="_clipPath_gtH6sKjDxeLtu0apZMKH0wWfUSKyQg35"><rect width="500" height="500"/></clipPath></defs><g clip-path="url(#_clipPath_gtH6sKjDxeLtu0apZMKH0wWfUSKyQg35)"><clipPath id="_clipPath_btqzgxBdT3b3PzFzpXTnprRDoPOR8nwe"><rect x="0" y="0" width="500" height="500" transform="matrix(1,0,0,1,0,0)" fill="rgb(255,255,255)"/></clipPath><g clip-path="url(#_clipPath_btqzgxBdT3b3PzFzpXTnprRDoPOR8nwe)"><g id="Group"><clipPath id="_clipPath_1KG0yzir2yGlRrPAQMCx59EiiCDQyJ4d"><rect x="0" y="0" width="500" height="500" transform="matrix(1,0,0,1,0,0)" fill="rgb(255,255,255)"/></clipPath><g clip-path="url(#_clipPath_1KG0yzir2yGlRrPAQMCx59EiiCDQyJ4d)"><g id="Group"><g id="Group"><g id="Group"><path d=" M 112.692 124.996 C 113.02 124.25 113.233 123.459 113.324 122.649 C 112.908 113.01 112.425 103.371 111.959 93.749 C 111.959 92.351 111.71 90.969 111.71 89.571 C 111.71 86.89 112.808 85.459 114.873 85.276 C 115.981 85.16 117.089 85.501 117.94 86.221 C 118.792 86.94 119.313 87.976 119.384 89.088 C 119.983 95.048 120.483 101.007 120.932 106.984 C 121.298 111.828 121.532 116.673 121.848 121.534 C 121.848 122.066 121.848 122.732 122.131 123.082 C 122.847 123.914 123.629 124.996 124.578 125.246 C 125.86 125.579 126.509 124.364 126.759 123.165 C 128.024 116.706 129.123 110.213 130.604 103.804 C 131.63 99.901 132.864 96.056 134.3 92.284 C 134.645 91.49 135.226 90.822 135.965 90.37 C 138.129 88.955 140.143 89.77 140.177 92.351 C 140.209 96.459 140.015 100.566 139.594 104.653 C 139.128 109.414 138.395 114.159 137.729 118.903 C 137.565 120.158 137.287 121.395 136.897 122.599 C 134.2 130.623 136.897 137.665 141.092 144.241 C 142.923 147.104 145.903 147.037 148.933 144.69 C 151.171 142.608 153.595 140.736 156.175 139.097 C 160.459 137.023 164.874 135.233 169.393 133.736 C 170.552 133.577 171.73 133.831 172.722 134.452 C 175.219 135.767 175.352 138.114 173.122 139.896 C 169.542 142.776 165.997 145.705 162.301 148.436 C 155.009 153.813 149.283 160.788 142.873 167.064 C 140.226 169.644 138.029 172.741 134.383 174.206 C 133.884 174.406 133.451 175.687 133.568 176.37 C 134.45 181.614 135.515 186.824 136.431 192.068 C 136.664 193.417 137.197 194.049 138.628 194.049 Q 157.107 194.049 175.585 194.049 C 177.533 194.049 178.016 192.784 178.282 191.236 C 179.398 184.677 180.463 178.118 181.612 171.575 C 184.325 156.859 187.105 142.176 189.802 127.46 C 189.846 126.811 189.558 126.184 189.036 125.795 C 184.575 124.23 181.495 120.801 178.316 117.655 C 172.905 112.244 167.878 106.434 162.268 101.257 C 156.108 95.597 149.466 90.453 143.023 85.093 C 141.225 83.611 139.394 82.163 137.58 80.714 C 135.415 79.05 134.916 77.718 135.665 75.72 C 136.379 73.623 138.458 72.306 140.659 72.557 C 143.472 72.899 146.255 73.455 148.983 74.222 C 154.81 76.091 160.165 79.198 164.681 83.328 C 167.112 85.286 169.707 87.029 172.439 88.539 C 174.686 89.887 176.568 89.371 178.366 87.29 C 181.349 83.606 183.394 79.253 184.325 74.605 C 184.725 72.94 185.124 71.275 185.491 69.61 C 186.218 65.937 186.064 62.143 185.041 58.54 C 182.22 46.898 180.459 35.024 179.781 23.065 C 179.763 21.27 179.897 19.477 180.18 17.704 C 180.184 16.259 181.118 14.982 182.494 14.541 C 184.008 14.059 185.662 14.57 186.639 15.823 C 188.78 18.152 190.222 21.037 190.801 24.147 C 192.799 34.668 194.697 45.205 196.778 55.777 C 197.355 58.063 198.14 60.292 199.125 62.435 C 199.585 63.24 200.144 63.984 200.79 64.65 C 202.972 61.502 204.198 57.79 204.319 53.962 C 204.685 44.19 205.517 34.451 206.25 24.696 C 206.55 20.734 206.966 16.755 207.632 12.843 C 208.004 11.516 208.798 10.347 209.896 9.514 C 211.323 8.359 213.322 8.225 214.89 9.181 C 216.664 10.108 217.679 12.038 217.437 14.025 Q 216.921 23.198 216.388 32.337 C 215.939 39.978 215.456 47.619 215.09 55.26 C 214.99 57.258 214.673 59.422 217.021 61.32 C 217.725 60.22 218.284 59.034 218.685 57.791 C 220.633 45.788 222.481 33.769 224.346 21.749 C 224.346 21.416 224.462 21.1 224.512 20.767 C 225.145 17.354 226.576 15.906 228.957 16.239 C 230.401 16.364 231.733 17.071 232.644 18.199 C 233.555 19.327 233.967 20.777 233.785 22.216 C 232.869 29.474 231.92 36.732 230.871 43.974 C 229.889 50.633 228.724 57.291 227.658 64.067 C 227.49 65.051 227.445 66.052 227.525 67.047 C 227.825 70.21 230.322 71.508 232.886 69.644 C 234.859 68.192 236.658 66.516 238.246 64.65 C 243.989 58.077 248.78 50.73 252.48 42.825 C 252.929 41.726 253.822 40.868 254.938 40.463 C 256.054 40.057 257.289 40.141 258.339 40.694 C 259.562 41.234 260.498 42.268 260.914 43.538 C 261.33 44.808 261.187 46.195 260.52 47.353 C 257.89 51.981 255.193 56.576 252.33 61.037 C 249.233 65.848 246.004 70.576 242.674 75.221 C 239.493 79.933 237.578 85.385 237.114 91.052 C 235.869 102.353 232.316 113.277 226.676 123.148 C 220.816 133.287 219.584 144.024 220.583 155.477 C 221.582 166.931 221.915 178.784 222.481 190.553 C 222.631 193.75 222.797 193.983 225.894 193.983 L 258.855 193.983 C 261.752 193.983 261.869 193.833 262.018 190.986 Q 262.351 184.111 262.718 177.236 C 263.197 170.682 261.67 164.138 258.339 158.474 C 254.809 152.651 252.636 146.108 251.98 139.33 C 251.631 134.945 250.107 130.735 247.569 127.144 C 244.239 122.482 241.243 117.605 238.163 112.794 C 237.563 111.841 237.098 110.81 236.781 109.731 C 236.483 109.036 236.494 108.247 236.812 107.562 C 237.129 106.876 237.723 106.357 238.446 106.135 C 239.163 105.823 239.977 105.826 240.692 106.142 C 241.407 106.459 241.956 107.06 242.208 107.799 C 244.995 113.336 248.517 118.471 252.679 123.065 C 253.728 124.247 254.843 125.845 256.625 125.046 C 258.406 124.247 258.289 122.416 258.006 120.818 Q 256.142 108.182 254.194 95.564 C 253.944 93.899 253.778 92.367 255.276 91.185 C 257.44 89.521 259.471 90.103 259.971 92.85 C 260.737 96.962 261.369 101.174 262.035 105.252 C 262.701 109.331 263.284 113.143 263.95 117.072 C 264.142 117.779 264.404 118.465 264.732 119.12 L 265.464 119.12 C 265.769 118.255 265.959 117.354 266.03 116.439 Q 265.348 102.988 264.532 89.537 C 264.399 87.223 265.048 85.942 266.846 85.509 C 267.719 85.202 268.685 85.315 269.463 85.817 C 270.241 86.318 270.744 87.151 270.825 88.072 C 271.417 90.724 271.801 93.418 271.974 96.13 C 272.44 102.789 272.739 109.448 273.156 116.107 C 273.239 117.438 273.056 119.186 274.987 119.436 C 276.918 119.686 277.534 117.971 277.867 116.323 C 279.365 108.832 280.813 101.34 282.428 93.849 C 282.759 92.51 283.416 91.275 284.343 90.253 C 285.023 89.587 285.989 89.3 286.923 89.487 C 287.884 89.964 288.585 90.842 288.837 91.885 C 288.945 93.808 288.867 95.737 288.604 97.645 C 287.922 105.061 286.749 112.424 285.092 119.686 C 283.843 125.346 285.824 130.906 289.387 135.601 C 289.98 136.518 290.939 137.135 292.02 137.294 C 293.101 137.454 294.197 137.14 295.03 136.433 C 296.245 135.617 297.294 134.585 298.36 133.653 C 302.167 130.502 306.642 128.259 311.444 127.094 C 312.462 126.772 313.545 126.714 314.591 126.927 C 315.623 127.244 316.988 127.993 317.288 128.858 C 317.388 129.988 316.993 131.106 316.206 131.921 C 315.036 133.107 313.741 134.162 312.343 135.068 C 303.853 141.177 296.828 148.835 289.57 156.26 C 287.905 157.925 285.874 159.107 284.293 160.771 C 283.493 161.687 283.103 162.89 283.211 164.101 C 284.875 173.606 286.54 183.079 288.205 192.584 C 288.388 193.683 288.821 194.049 289.869 194.049 C 293.598 194.049 297.327 194.049 301.056 194.049 L 318.836 194.049 C 321.133 194.049 321.633 193.617 321.749 191.303 C 322.032 185.593 322.282 179.866 322.581 174.156 Q 323.347 159.306 324.246 144.474 C 324.763 136.531 323.032 128.604 319.252 121.6 C 314.524 112.777 310.262 103.671 309.497 93.533 C 308.833 87.094 306.402 80.963 302.471 75.82 C 298.376 69.91 294.564 63.834 290.685 57.774 C 289.872 56.485 289.239 55.09 288.804 53.629 C 288.143 51.629 289.128 49.456 291.068 48.635 C 292.967 47.87 295.126 48.786 295.896 50.682 C 299.875 58.453 304.85 65.672 310.695 72.158 C 311.511 73.11 312.5 73.901 313.609 74.488 C 314.618 75.16 315.937 75.137 316.922 74.429 C 317.907 73.722 318.351 72.479 318.037 71.309 C 317.487 67.147 316.772 62.985 316.172 58.873 Q 314.291 45.738 312.477 32.587 C 312.247 31.141 312.739 29.674 313.794 28.659 C 314.849 27.643 316.334 27.208 317.77 27.493 C 318.735 27.783 319.506 28.511 319.851 29.457 C 321.832 39.978 323.664 50.516 325.495 61.087 C 325.586 62.343 325.742 63.593 325.961 64.833 C 326.144 65.482 326.943 65.965 327.459 66.497 C 327.909 65.881 328.741 65.249 328.724 64.633 C 328.641 60.438 328.375 56.309 328.158 52.064 C 327.692 43.158 327.143 34.268 326.81 25.428 C 326.66 21.516 330.139 19.302 333.153 21.267 C 334.286 22.062 335.086 23.248 335.4 24.596 C 336.188 28.371 336.744 32.19 337.065 36.033 C 337.647 44.257 337.997 52.497 338.446 60.737 C 338.451 61.803 338.58 62.865 338.829 63.9 C 339.112 64.866 339.878 66.564 340.211 66.514 C 341.583 66.26 342.877 65.69 343.99 64.849 C 344.556 64.433 344.706 63.318 344.856 62.485 C 346.321 54.578 347.536 46.604 349.251 38.763 C 350.268 34.99 351.587 31.304 353.196 27.742 C 353.451 26.927 354.024 26.249 354.785 25.861 C 355.546 25.472 356.431 25.407 357.241 25.678 C 359.172 26.161 359.522 27.576 359.572 29.341 C 359.822 39.712 358.107 49.9 356.625 60.088 C 356.492 60.942 356.269 61.779 355.959 62.585 C 352.63 71.259 355.26 79.233 359.189 86.857 C 359.387 87.204 359.616 87.533 359.872 87.839 C 362.635 91.485 365.898 91.935 369.51 89.088 C 371.591 87.423 373.522 85.592 375.62 83.961 C 376.475 83.446 377.392 83.043 378.35 82.762 C 378.45 82.762 378.616 82.762 378.666 82.762 C 381.996 79.099 386.757 78.8 390.919 77.135 C 392.446 76.729 394.046 76.678 395.597 76.985 C 397.279 77.047 398.679 78.3 398.926 79.965 C 399.186 81.515 398.473 83.066 397.128 83.877 C 391.784 88.072 386.274 92.068 381.197 96.563 C 375.487 101.557 370.176 107.167 364.716 112.511 C 362.052 115.124 359.472 117.821 356.792 120.402 C 356.026 121.239 355.082 121.894 354.028 122.316 C 351.614 123.048 351.515 124.663 351.897 126.678 C 353.396 134.385 354.927 142.076 356.342 149.784 C 357.175 154.279 357.741 158.807 358.54 163.302 C 359.838 170.627 361.237 177.935 362.568 185.26 C 363.084 188.073 363.551 190.886 364.083 193.966 L 368.628 193.966 C 372.357 193.966 376.086 193.966 379.815 193.966 C 380.509 194.086 381.221 193.903 381.771 193.464 C 382.321 193.025 382.658 192.372 382.695 191.669 C 383.827 185.393 385.009 179.117 386.158 172.841 C 386.486 171.412 385.879 169.932 384.643 169.145 C 380.847 166.115 377.285 162.802 373.639 159.606 Q 370.309 156.659 366.98 153.68 C 366.514 153.299 366.129 152.83 365.848 152.298 C 365.038 150.566 363.673 149.154 361.969 148.286 C 361.37 147.953 360.671 146.788 360.854 146.338 C 361.263 145.539 361.977 144.938 362.835 144.673 C 363.869 144.469 364.941 144.597 365.898 145.04 C 368.628 146.405 371.275 147.936 373.905 149.468 C 375.22 150.234 376.419 151.232 377.751 151.965 C 378.41 152.466 379.265 152.629 380.063 152.407 C 380.86 152.185 381.508 151.602 381.813 150.833 C 383.133 148.133 384.284 145.353 385.259 142.509 C 385.518 141.393 385.401 140.222 384.926 139.18 C 383.628 135.551 382.898 131.744 382.762 127.893 C 382.595 125.512 382.312 123.115 382.279 120.734 C 382.37 119.409 382.576 118.095 382.895 116.806 C 385.175 117.022 386.224 117.988 386.674 119.736 C 387.872 125.113 389.038 130.506 390.303 135.884 C 390.694 137.002 391.196 138.078 391.801 139.097 C 393.285 138.175 394.2 136.564 394.232 134.818 C 394.232 129.824 394.565 124.83 394.781 119.719 C 394.781 118.654 394.964 117.605 395.047 116.539 C 395.002 115.824 395.252 115.12 395.74 114.595 C 396.228 114.069 396.91 113.767 397.628 113.759 C 399.409 113.759 400.042 114.991 399.942 116.589 C 399.809 118.853 399.442 121.084 399.359 123.348 C 399.193 127.893 399.126 132.454 399.076 136.999 C 399.127 137.715 399.463 138.381 400.008 138.847 C 400.305 138.159 400.539 137.446 400.707 136.716 C 401.19 133.386 401.523 129.874 402.073 126.478 C 402.426 124.18 402.983 121.918 403.737 119.719 C 404.191 118.813 405.063 118.189 406.068 118.054 C 406.584 118.054 407.616 119.419 407.616 120.168 C 407.562 122.399 407.356 124.624 407 126.827 C 406.434 131.023 405.718 135.151 405.335 139.413 C 405.219 140.528 405.452 142.376 406.135 142.742 C 407.583 143.508 408.632 142.11 409.464 140.944 C 411.994 137.349 414.458 133.769 417.022 130.157 C 417.854 128.942 418.687 128.226 420.152 129.091 C 421.617 129.957 421.45 131.256 420.651 132.554 C 418.037 136.716 415.657 141.011 412.743 145.023 C 410.749 148.026 409.599 151.511 409.414 155.111 C 408.875 159.683 407.353 164.085 404.953 168.013 C 402.367 172.482 401.206 177.633 401.623 182.779 C 401.839 185.559 401.939 188.356 402.122 191.103 C 402.306 193.85 402.455 193.8 404.969 193.8 C 407.483 193.8 410.296 193.8 412.96 193.8 C 413.803 193.805 414.631 194.017 415.374 194.416 Q 397.062 195.864 378.75 197.296 Q 355.76 199.06 332.77 200.792 L 284.492 204.521 Q 256.824 206.651 229.157 208.782 C 208.93 210.314 188.687 211.795 168.444 213.344 C 154.177 214.426 139.927 215.624 125.66 216.673 Q 103.569 218.338 81.478 220.003 C 79.314 220.169 78.898 219.736 78.898 217.555 Q 78.898 206.968 78.898 196.38 C 78.898 194.133 79.264 193.783 81.628 193.783 L 106.599 193.783 C 109.662 193.783 109.928 193.383 110.078 190.32 C 110.311 183.512 108.031 177.385 104.984 171.476 C 102.087 165.865 98.991 160.339 98.092 153.929 C 97.747 150.686 97.151 147.475 96.311 144.324 C 95.379 141.086 94.048 137.977 92.349 135.068 C 88.803 129.208 84.824 123.614 81.095 117.871 C 80.304 116.64 79.645 115.329 79.131 113.959 C 78.759 113.091 78.754 112.109 79.118 111.237 C 79.482 110.365 80.183 109.678 81.062 109.331 C 81.899 108.992 82.839 109.008 83.665 109.375 C 84.49 109.742 85.131 110.43 85.44 111.279 C 88.479 117.427 92.301 123.157 96.81 128.326 C 97.848 129.534 99.054 130.588 100.389 131.455 C 102.554 132.804 104.235 131.805 104.135 129.241 C 103.997 127.011 103.747 124.788 103.386 122.582 Q 101.455 109.348 99.474 96.13 C 99.068 94.385 99.8 92.574 101.305 91.602 C 102.181 90.832 103.414 90.62 104.497 91.052 C 105.579 91.485 106.327 92.488 106.432 93.649 C 107.681 100.791 108.83 107.949 109.995 115.108 C 110.411 117.671 110.761 120.235 111.227 122.782 C 111.441 123.491 111.737 124.173 112.109 124.813 L 112.692 124.996 L 112.692 124.996 Z " fill="rgb(0,0,0)"/><path d=" M 91.383 478.736 L 91.383 475.523 Q 91.383 446.556 91.383 417.607 C 91.383 413.927 91.566 413.761 95.179 413.761 L 405.369 413.761 C 408.598 413.761 408.598 413.761 408.598 416.924 Q 408.598 446.689 408.598 476.438 L 408.598 478.736 L 91.383 478.736 L 91.383 478.736 Z  M 279.898 430.458 L 279.898 432.789 Q 279.898 443.477 279.898 454.147 C 279.942 454.746 279.942 455.347 279.898 455.945 C 279.766 457.565 278.392 458.799 276.768 458.759 C 274.987 458.842 274.421 457.51 274.154 456.045 C 274.102 455.492 274.102 454.934 274.154 454.381 C 274.154 447.522 274.154 440.663 274.154 433.821 C 274.154 431.973 273.472 430.908 271.541 430.841 C 270.981 430.822 270.424 430.755 269.876 430.641 C 268.211 430.308 267.529 431.008 267.529 432.656 C 267.529 440.114 267.429 447.638 267.529 455.013 C 267.777 458.375 269.626 461.413 272.499 463.178 C 275.372 464.942 278.917 465.218 282.029 463.919 C 283.124 463.302 284.462 463.302 285.558 463.919 C 288.33 465.371 291.658 465.273 294.341 463.662 C 297.023 462.05 298.672 459.158 298.693 456.029 C 298.842 448.97 298.693 441.928 298.693 434.87 C 298.693 431.241 298.693 431.224 295.197 430.675 C 292.466 430.242 291.867 430.675 291.867 433.555 C 291.867 440.214 291.867 447.006 291.867 453.715 C 291.898 454.442 291.831 455.17 291.667 455.879 C 291.125 457.598 289.426 458.68 287.639 458.442 C 285.874 458.01 286.44 456.495 286.357 455.313 C 286.274 454.131 286.357 453.315 286.357 452.316 C 286.357 446.123 286.357 439.931 286.357 433.754 C 286.299 432.647 285.726 431.631 284.809 431.008 C 283.2 430.633 281.549 430.471 279.898 430.525 L 279.898 430.458 L 279.898 430.458 Z  M 234.101 446.756 C 233.535 445.89 233.119 445.308 232.769 444.708 C 230.672 441.096 228.591 437.45 226.476 433.838 C 225.349 431.468 222.724 430.201 220.167 430.791 C 219.523 431.051 219.05 431.612 218.902 432.29 C 218.902 441.862 218.902 451.451 218.902 461.023 C 218.846 462.856 220.282 464.389 222.115 464.452 C 223.213 464.552 224.346 464.452 225.727 464.452 L 225.727 445.224 L 226.21 445.091 L 235.133 459.075 L 242.591 446.406 C 242.942 447.089 243.098 447.855 243.04 448.621 C 243.04 452.483 243.04 456.345 243.157 460.274 C 243.274 464.202 244.372 464.835 248.151 464.669 C 249.45 464.669 249.949 464.003 249.949 462.837 Q 249.949 448.071 249.949 433.305 C 250.026 432.115 249.14 431.08 247.951 430.974 C 245.556 430.331 243.033 431.42 241.859 433.605 L 234.101 446.756 L 234.101 446.756 Z  M 319.169 464.902 C 323.717 464.919 328.085 463.12 331.301 459.904 C 334.518 456.688 336.317 452.32 336.299 447.772 C 336.299 437.583 328.158 430.042 317.204 430.042 C 312.828 430.055 308.64 431.825 305.581 434.955 C 302.523 438.086 300.851 442.314 300.94 446.689 C 300.99 456.095 309.896 464.968 319.169 464.952 L 319.169 464.902 L 319.169 464.902 Z  M 144.854 466.084 C 145.78 465.397 146.793 464.837 147.868 464.419 C 150.581 463.919 150.598 464.003 150.598 461.322 C 150.598 460.54 150.598 459.758 150.598 458.942 L 152.129 459.142 C 151.83 458.209 151.597 457.477 151.364 456.728 C 151.13 455.979 150.947 455.263 150.714 454.514 C 153.012 454.214 154.36 455.296 155.259 458.293 C 155.647 460.088 156.67 461.684 158.139 462.787 C 160.886 464.918 163.333 464.219 166.296 464.252 L 159.304 453.365 C 159.837 452.899 160.37 452.483 160.836 452.017 C 164.282 448.687 166.213 444.725 164.898 439.831 C 163.87 435.196 160.037 431.709 155.326 431.124 C 152.562 430.801 149.784 430.618 147.002 430.575 C 144.288 430.408 143.939 430.691 143.939 433.338 C 143.939 441.246 143.856 449.17 143.939 457.077 C 144.005 460.141 144.522 463.087 144.854 466.084 Z  M 354.711 453.498 C 354.769 453.35 354.848 453.21 354.944 453.082 C 355.343 452.732 355.743 452.383 356.159 452.05 C 359.617 449.351 361.284 444.95 360.483 440.637 C 359.681 436.324 356.544 432.817 352.347 431.54 C 348.135 430.159 343.84 430.558 339.429 430.758 C 339.429 431.474 339.295 432.056 339.295 432.639 C 339.295 441.762 339.295 450.951 339.429 459.991 C 339.429 464.003 341.842 465.584 345.971 464.286 L 345.971 454.63 C 346.6 454.329 347.326 454.297 347.979 454.542 C 348.632 454.787 349.158 455.288 349.434 455.929 C 350.616 457.926 351.864 459.891 353.046 461.888 C 354.228 463.886 358.623 465.734 361.253 463.82 L 354.711 453.498 L 354.711 453.498 Z  M 187.122 428.86 L 186.856 428.161 C 185.93 428.295 185.028 428.558 184.175 428.943 C 182.397 430.129 180.284 430.712 178.149 430.608 C 175.219 430.475 172.289 430.608 169.359 430.608 C 168.028 430.608 167.362 431.041 167.362 432.423 C 167.362 441.878 167.362 451.334 167.362 460.723 C 167.339 461.734 167.729 462.71 168.442 463.426 C 169.155 464.143 170.13 464.537 171.141 464.519 C 175.802 464.519 180.463 464.519 185.124 464.519 C 186.256 464.519 187.422 464.419 187.272 462.854 C 187.122 461.289 188.237 459.208 185.607 458.859 C 182.977 458.509 180.613 458.442 178.066 458.293 C 176.834 458.293 175.602 458.293 174.254 458.293 C 174.254 456.295 174.254 454.63 174.254 452.966 C 174.254 450.735 174.587 450.502 176.851 450.518 C 179.581 450.518 182.311 450.518 185.041 450.518 C 187.022 450.518 187.405 449.536 187.488 446.773 C 187.488 444.925 186.44 444.975 185.191 444.925 C 182.394 444.808 179.597 444.775 176.867 444.442 C 175.918 444.326 174.37 443.46 174.32 442.777 C 174.267 440.818 174.429 438.858 174.803 436.934 C 174.803 436.818 175.536 436.701 175.918 436.718 C 179.631 436.868 183.343 437.101 187.055 437.184 C 187.888 437.184 189.136 437.001 189.469 436.451 C 189.919 435.394 190.189 434.268 190.268 433.122 L 189.469 432.905 L 187.805 436.235 C 187.488 433.538 187.588 431.241 185.074 430.408 L 187.122 428.86 L 187.122 428.86 Z  M 124.195 464.419 L 125.194 464.419 C 131.808 464.63 137.827 460.617 140.177 454.43 C 142.993 448.384 141.788 441.226 137.147 436.435 C 132.735 431.44 126.775 430.591 120.499 430.625 C 118.968 430.625 118.835 431.807 118.835 433.039 C 118.835 441.745 118.735 450.452 118.718 459.175 C 118.751 463.37 120.1 464.669 124.195 464.419 Z  M 384.976 464.236 C 384.343 463.187 383.777 462.155 383.145 461.156 C 380.514 457.077 377.817 453.049 375.22 448.937 C 372.407 444.509 372.191 445.724 375.52 441.346 C 377.917 438.199 380.231 434.97 382.579 431.79 L 382.362 431.091 C 379.915 431.091 377.168 430.292 375.087 431.091 C 373.006 431.89 371.641 434.42 369.877 436.268 C 369.71 435.333 369.605 434.387 369.56 433.438 C 369.632 432.8 369.427 432.162 368.997 431.685 C 368.568 431.208 367.955 430.937 367.313 430.941 L 365.332 430.691 C 363.334 430.458 362.702 430.924 362.702 432.872 Q 362.702 446.839 362.702 460.823 C 362.611 462.643 363.954 464.219 365.765 464.419 C 366.93 464.535 368.112 464.419 369.677 464.419 L 369.677 451.75 C 371.866 454.344 373.816 457.13 375.503 460.074 C 377.568 463.82 380.331 465.734 384.976 464.236 Z  M 216.421 464.419 C 216.447 464.181 216.447 463.941 216.421 463.703 C 212.826 453.715 209.246 443.726 205.584 433.738 C 205.216 432.816 204.592 432.019 203.786 431.44 C 201.705 429.959 199.907 430.608 199.042 432.989 Q 194.047 446.739 189.053 460.507 C 188.79 461.086 188.732 461.738 188.887 462.355 C 189.311 463.809 190.707 464.759 192.216 464.619 C 193.881 464.619 195.196 464.252 195.812 462.504 C 196.594 460.24 197.477 458.01 198.209 455.746 C 198.619 454.212 200.054 453.18 201.639 453.282 C 202.37 453.323 203.104 453.323 203.836 453.282 C 204.566 453.158 205.316 453.336 205.912 453.776 C 206.509 454.215 206.901 454.878 206.999 455.612 C 207.485 457.314 208.08 458.982 208.78 460.607 C 210.179 464.419 212.176 465.268 216.421 464.419 Z  M 99.507 452.666 C 100.429 451.659 101.723 451.073 103.087 451.045 C 104.452 451.016 105.769 451.548 106.732 452.516 C 105.067 449.07 106.849 447.189 109.479 445.441 C 105.783 446.057 103.719 444.592 102.936 440.946 C 102.57 445.041 99.607 445.291 96.278 445.491 C 100.306 448.071 100.406 448.454 99.49 452.633 L 99.507 452.666 L 99.507 452.666 Z  M 396.845 441.113 C 396.329 444.958 393.782 445.591 390.536 445.474 C 393.383 447.139 394.864 449.237 392.817 452.832 C 393.485 452.546 394.121 452.188 394.714 451.767 C 395.238 451.055 396.07 450.635 396.953 450.635 C 397.837 450.635 398.669 451.055 399.193 451.767 C 399.979 452.303 400.829 452.739 401.723 453.065 C 399.259 449.436 399.259 449.436 403.021 445.108 C 399.509 446.107 397.561 444.658 396.845 441.113 Z " fill="rgb(0,0,0)"/><path d=" M 84.991 288.523 L 91.566 287.974 Q 122.197 285.576 152.845 283.213 C 172.939 281.664 193.049 280.199 213.142 278.651 Q 248.351 275.954 283.577 273.191 L 348.235 268.197 L 409.114 263.569 C 412.444 263.319 415.89 263.136 419.269 262.886 C 420.751 262.77 421.5 263.252 421.5 264.867 C 421.5 272.192 421.5 279.517 421.5 286.842 C 421.5 288.506 420.801 289.189 419.203 289.106 C 418.67 289.106 418.137 289.106 417.538 289.106 L 85.007 289.106 L 84.991 288.523 L 84.991 288.523 Z " fill="rgb(0,0,0)"/><path d=" M 216.654 249.019 C 216.855 248.401 217.022 247.773 217.154 247.138 C 218.253 237.682 219.368 228.243 220.483 218.837 C 220.683 216.923 221.382 216.007 223.43 215.907 C 227.009 215.741 230.572 215.325 234.317 214.992 C 234.6 218.421 234.9 221.651 235.15 224.88 Q 236.814 246.522 238.479 268.063 C 238.729 271.393 238.662 271.393 235.233 271.576 C 233.052 271.659 230.888 271.842 228.574 271.992 L 226.044 240.645 L 225.694 240.645 C 225.328 243.509 224.928 246.355 224.612 249.219 C 223.879 256.094 223.197 262.986 222.498 269.878 C 222.231 272.542 221.882 272.908 219.168 272.875 C 214.174 272.875 215.04 273.674 213.708 268.646 C 211.477 260.223 209.296 251.799 207.049 243.375 C 206.916 242.713 206.598 242.101 206.133 241.611 C 206.416 245.806 206.683 249.935 206.999 254.196 C 207.432 260.039 207.865 265.849 208.364 271.709 C 208.497 273.224 208.014 273.99 206.416 273.957 C 203.836 273.957 201.256 273.957 198.409 273.957 C 197.91 268.247 197.36 262.42 196.911 256.61 C 196.012 244.957 195.246 233.387 194.264 221.784 C 193.997 218.454 194.264 218.105 197.493 217.888 C 200.09 217.705 202.671 217.555 205.251 217.289 C 207.116 217.089 207.981 217.822 208.464 219.653 C 210.611 228.027 212.909 236.35 215.173 244.674 C 215.539 246.006 216.038 247.221 216.654 249.019 Z " fill="rgb(0,0,0)"/><path d=" M 249.916 213.727 L 259.338 253.314 L 259.838 253.314 L 263.167 212.861 C 265.964 212.644 268.727 212.395 271.491 212.245 C 272.956 212.245 273.322 213.26 273.588 214.442 Q 276.552 227.061 279.565 239.663 C 280.48 243.459 281.446 247.238 282.378 251.017 L 282.961 251.017 C 283.127 249.618 283.36 248.22 283.46 246.805 C 284.276 235.734 285.125 224.647 285.874 213.51 C 286.007 211.646 286.64 210.747 288.638 210.73 C 290.635 210.713 293.116 210.397 295.613 210.181 C 295.263 213.194 294.964 216.007 294.614 218.821 Q 291.834 241.594 289.037 264.384 C 288.687 267.281 288.571 267.398 285.608 267.564 C 283.36 267.681 281.113 267.88 278.732 268.047 L 269.993 237.283 L 269.46 237.283 L 265.564 269.129 C 262.818 269.362 260.121 269.745 257.424 269.712 C 256.397 269.449 255.556 268.714 255.16 267.731 C 253.761 263.652 252.546 259.507 251.381 255.345 Q 246.536 238.181 241.759 220.985 C 241.176 218.887 240.593 216.79 239.977 214.542 L 249.916 213.727 L 249.916 213.727 Z " fill="rgb(0,0,0)"/><path d=" M 373.323 260.872 C 369.993 261.138 366.98 261.488 364.017 261.504 C 363.318 261.504 362.352 260.522 361.936 259.84 C 358.773 253.913 355.726 247.937 352.647 241.977 C 352.463 241.627 352.364 241.078 352.081 240.945 C 351.263 240.528 350.367 240.284 349.45 240.229 C 349.167 240.229 348.635 241.428 348.685 242.044 Q 349.251 251.1 350.016 260.156 C 350.166 261.971 349.633 262.936 347.669 262.969 C 345.705 263.003 344.09 263.136 342.292 263.286 C 340.494 263.436 340.028 262.653 339.911 261.105 C 339.429 254.662 338.863 248.236 338.396 241.811 C 337.614 231.123 336.915 220.452 336.049 209.764 C 335.883 207.7 336.499 207.051 338.463 206.934 C 343.457 206.651 348.551 206.169 353.595 205.902 C 359.973 205.455 365.743 209.676 367.246 215.891 C 369.527 223.848 368.545 231.04 362.252 236.983 C 361.153 238.032 361.503 238.931 362.069 239.996 Q 367.063 249.219 371.958 258.458 C 372.357 259.041 372.707 259.756 373.323 260.872 Z  M 347.686 231.672 C 350.482 231.256 353.113 230.973 355.693 230.44 C 357.241 230.227 358.373 228.872 358.307 227.311 C 358.174 223.798 357.94 220.286 357.508 216.806 C 357.295 215.189 355.892 213.995 354.261 214.043 C 351.698 214.043 349.151 214.243 346.454 214.376 L 347.686 231.672 L 347.686 231.672 Z " fill="rgb(0,0,0)"/><path d=" M 331.937 250.301 C 332.254 260.023 327.076 265.4 318.02 265.849 C 314.212 266.303 310.37 265.349 307.216 263.169 C 304.611 261.348 302.951 258.462 302.688 255.295 C 301.772 244.224 300.823 233.154 300.008 222 C 299.508 215.341 303.237 210.497 309.713 208.832 C 313.614 207.615 317.806 207.709 321.649 209.099 C 325.96 210.52 329.015 214.366 329.424 218.887 C 330.472 229.691 331.172 240.579 331.937 250.301 Z  M 321.949 251.782 C 321.949 251.616 321.949 251.35 321.949 251.083 Q 320.75 236.101 319.568 221.268 C 319.319 218.055 317.404 216.074 314.574 216.274 C 313.184 216.299 311.874 216.927 310.983 217.994 C 310.092 219.06 309.707 220.462 309.93 221.834 Q 311.062 237.449 312.31 253.048 C 312.455 255.727 314.623 257.851 317.304 257.942 C 319.718 257.942 321.449 256.277 321.916 253.347 C 321.949 252.798 321.982 252.332 322.032 251.766 L 321.949 251.782 L 321.949 251.782 Z " fill="rgb(0,0,0)"/><path d=" M 410.696 258.075 C 406.784 258.308 403.304 258.641 399.809 258.641 C 399.109 258.641 398.144 257.559 397.761 256.76 C 394.581 251.3 391.485 245.789 388.372 240.296 C 387.989 239.613 387.556 238.981 387.14 238.315 L 386.524 238.448 C 386.757 241.161 386.973 243.875 387.206 246.572 C 387.456 249.635 387.789 252.698 387.889 255.778 C 388.061 256.979 387.676 258.192 386.842 259.074 C 386.009 259.956 384.819 260.409 383.611 260.306 C 381.829 260.422 380.065 260.589 378.117 260.755 L 373.772 204.487 C 376.885 204.204 379.848 203.855 382.812 203.721 C 384.21 203.721 384.16 204.92 384.243 205.919 Q 384.826 213.477 385.409 221.035 C 385.419 221.509 385.589 221.967 385.891 222.333 C 386.141 221.801 386.424 221.284 386.64 220.668 C 388.738 215.491 390.902 210.347 392.883 205.137 C 393.299 203.556 394.728 202.455 396.363 202.456 C 398.593 202.323 400.824 202.057 403.388 201.824 L 397.927 214.159 C 396.146 218.171 394.381 222.183 392.584 226.179 C 391.954 227.452 392.096 228.972 392.95 230.108 Q 401.273 242.843 409.331 255.628 C 409.747 256.327 410.097 257.026 410.696 258.075 Z " fill="rgb(0,0,0)"/><path d=" M 131.736 488.058 L 131.736 485.594 L 412.377 485.594 C 415.207 485.594 415.623 485.195 415.607 482.348 C 415.607 470.029 415.49 457.71 415.49 445.408 C 415.49 433.888 415.574 422.368 415.607 410.864 C 415.607 409.682 415.507 408.484 415.424 407.052 L 354.894 407.052 L 355.443 404.638 L 417.871 404.638 C 417.971 405.554 418.137 406.453 418.137 407.352 Q 418.137 446.107 418.137 484.862 C 418.137 487.858 417.937 488.075 415.008 488.075 L 388.372 488.075 C 387.856 488.075 387.123 488.075 386.874 487.792 C 385.608 486.244 384.143 486.976 382.678 487.242 C 380.811 487.66 378.912 487.922 377.002 488.025 Q 319.868 488.025 262.734 488.025 C 259.571 488.025 256.408 487.525 253.245 487.276 C 252.386 487.214 251.524 487.214 250.665 487.276 C 247.169 487.509 243.656 488.008 240.16 488.025 Q 187.222 488.108 134.283 488.025 L 131.736 488.058 L 131.736 488.058 Z " fill="rgb(0,0,0)"/><path d=" M 159.421 277.436 C 159.987 272.442 160.47 267.797 161.086 263.136 C 162.75 249.818 164.415 236.617 166.08 223.365 C 166.446 220.452 166.945 219.953 169.792 219.886 C 171.257 219.904 172.72 219.809 174.17 219.603 C 176.035 219.27 176.901 219.869 177.5 221.751 C 181.529 235.934 185.657 250.051 189.736 264.268 C 190.718 267.697 191.683 271.127 192.732 274.856 C 189.569 275.072 186.689 275.388 183.793 275.388 C 183.227 275.388 182.378 274.273 182.128 273.524 C 181.329 270.71 180.68 267.864 180.097 265 C 179.747 263.336 179.015 262.586 177.217 262.869 C 175.501 263.101 173.771 263.206 172.04 263.186 C 170.375 263.186 169.759 263.902 169.709 265.466 C 169.609 268.33 169.343 271.177 169.276 274.023 C 169.276 275.838 168.693 276.853 166.629 276.853 C 164.565 276.853 162.101 277.203 159.421 277.436 Z  M 177.333 254.662 L 172.988 235.951 L 172.323 236.034 L 170.841 255.012 L 177.333 254.662 L 177.333 254.662 Z " fill="rgb(0,0,0)"/><path d=" M 262.018 330.325 C 263.902 328.698 265.881 327.186 267.945 325.796 C 270.379 324.321 272.956 323.094 275.636 322.134 C 277.146 321.618 278.809 321.82 280.152 322.683 C 281.495 323.545 282.37 324.974 282.528 326.562 C 283.146 329.928 281.867 333.361 279.199 335.502 C 275.51 338.623 270.891 340.432 266.064 340.646 L 263.2 340.912 C 264.565 341.795 265.498 342.361 266.363 342.977 C 270.176 345.707 272.323 349.635 274.337 353.764 C 277.051 359.241 279.648 364.768 282.511 370.178 C 284.532 374.151 289.15 376.053 293.382 374.656 C 295.546 373.941 295.962 373.208 295.663 370.977 C 295.472 370.066 295.472 369.125 295.663 368.214 C 295.896 367.448 296.595 366.366 297.211 366.283 C 298.21 366.215 299.193 366.564 299.924 367.248 C 301.459 369.247 301.325 372.063 299.608 373.907 C 296.811 377.57 292.833 378.402 288.554 378.086 C 282.775 377.598 277.658 374.161 275.02 368.996 C 272.04 363.836 269.693 358.309 267.146 352.915 C 265.331 349.069 263.816 345.091 260.487 342.111 L 259.471 341.212 C 258.806 343.909 258.173 346.373 257.607 348.836 C 256.874 352.016 256.159 355.179 255.526 358.375 C 255.226 359.857 254.56 360.589 252.979 360.49 C 251.397 360.39 249.949 360.49 248.135 360.49 C 248.934 357.16 249.649 354.047 250.382 350.967 Q 254.577 333.421 258.706 315.875 C 259.866 309.998 263.025 304.704 267.645 300.892 C 271.367 297.895 276.078 296.404 280.847 296.714 C 281.69 296.649 282.523 296.933 283.152 297.5 C 283.781 298.066 284.151 298.864 284.176 299.71 C 284.282 300.556 283.996 301.405 283.4 302.014 C 282.803 302.624 281.961 302.928 281.113 302.84 C 279.067 302.913 277.019 302.767 275.003 302.407 C 270.758 301.641 268.528 302.623 267.412 306.769 C 265.415 314.21 263.733 321.751 261.919 329.226 C 261.92 329.594 261.954 329.962 262.018 330.325 L 262.018 330.325 L 262.018 330.325 Z  M 259.355 338.648 C 264.166 338.981 268.461 338.965 272.373 336.634 C 274.945 335.357 276.533 332.695 276.435 329.825 C 276.335 326.679 273.921 324.964 271.341 326.779 C 267.735 329.464 264.304 332.378 261.07 335.502 C 260.35 336.433 259.772 337.465 259.355 338.565 L 259.355 338.648 L 259.355 338.648 Z " fill="rgb(0,0,0)"/><path d=" M 177.317 360.19 L 170.791 360.19 C 171.806 355.945 172.772 351.866 173.788 347.754 C 175.003 342.76 176.301 337.766 177.45 332.772 C 177.712 331.118 177.874 329.451 177.933 327.777 C 176.344 328.299 174.797 328.939 173.305 329.692 C 168.709 332.39 165.391 336.824 164.099 341.994 C 162.684 347.555 161.435 353.148 160.203 358.742 C 159.954 359.89 159.521 360.29 158.372 360.223 C 156.857 360.14 155.342 360.223 153.561 360.223 C 153.654 358.995 153.809 357.773 154.027 356.561 C 155.958 348.237 157.956 339.913 159.887 331.59 C 160.092 330.444 160.237 329.288 160.32 328.127 L 159.754 327.661 C 158.622 328.327 157.44 328.91 156.424 329.659 C 155.409 330.408 154.576 331.19 153.611 331.889 C 153.18 332.086 152.718 332.204 152.246 332.239 C 152.129 331.64 151.996 331.04 151.93 330.424 C 151.93 330.275 152.129 330.091 152.263 329.942 C 155.848 326.15 160.429 323.444 165.481 322.134 C 167.511 321.635 168.527 322.7 168.077 324.848 C 167.578 327.295 166.896 329.725 166.163 332.639 C 167.776 331.044 169.488 329.554 171.29 328.177 C 174.353 326.086 177.544 324.189 180.846 322.5 C 183.709 321.085 185.474 322.384 185.507 325.613 C 185.507 327.278 185.224 328.943 185.024 330.824 C 186.428 329.563 187.895 328.374 189.419 327.261 C 191.907 325.505 194.529 323.947 197.26 322.6 C 200.973 320.935 203.919 323.283 203.17 327.311 C 202.321 331.673 201.039 335.951 199.841 340.246 C 198.642 344.541 197.443 348.687 196.345 352.915 C 196.118 354.218 195.996 355.538 195.978 356.86 C 198.585 356.369 200.939 354.986 202.637 352.948 C 203.819 351.75 204.818 351.483 205.967 353.514 C 202.438 356.195 198.975 359.074 195.229 361.522 C 193.829 362.015 192.285 361.888 190.984 361.172 C 189.48 360.284 188.79 358.475 189.32 356.81 C 190.452 351.55 191.6 346.289 192.865 341.062 C 193.681 337.733 194.78 334.403 195.612 331.074 C 195.812 330.275 195.745 328.793 195.296 328.56 C 194.397 328.199 193.387 328.235 192.516 328.66 C 187.015 331.424 183.079 336.549 181.828 342.577 C 180.297 348.354 178.815 354.213 177.317 360.19 Z " fill="rgb(0,0,0)"/><path d=" M 125.677 223.432 L 150.015 221.551 L 150.681 229.558 L 136.547 230.94 C 136.714 233.154 136.88 235.268 137.014 237.366 Q 137.147 239.447 137.213 241.528 C 137.213 243.192 137.913 243.842 139.71 243.708 C 141.872 243.574 144.042 243.657 146.186 243.958 C 146.984 244.2 147.609 244.825 147.851 245.623 C 148.167 247.621 148.167 249.685 148.3 251.899 C 145.454 252.082 142.89 252.282 140.31 252.398 C 139.144 252.398 138.312 252.781 138.412 254.063 C 138.795 259.224 139.211 264.401 139.627 269.562 C 139.687 269.927 139.77 270.289 139.877 270.644 C 144.105 270.344 148.201 270.194 152.429 269.728 C 154.477 269.495 155.276 270.178 155.259 272.109 C 155.242 274.04 155.259 275.688 155.259 277.719 L 130.072 279.667 L 125.677 223.432 L 125.677 223.432 Z " fill="rgb(0,0,0)"/><path d=" M 120.583 231.822 L 110.311 232.788 C 110.727 238.714 111.11 244.441 111.543 250.218 C 112.242 259.423 112.991 268.53 113.674 277.819 C 113.907 280.865 113.674 280.998 110.761 281.148 L 103.719 281.564 L 100.007 233.52 L 89.835 234.286 L 89.152 226.229 C 93.331 225.879 97.293 225.53 101.255 225.213 L 117.153 223.998 C 119.767 223.798 120.017 223.998 120.133 226.645 C 120.283 228.326 120.433 229.974 120.583 231.822 Z " fill="rgb(0,0,0)"/><path d=" M 228.491 353.514 C 225.161 355.678 221.948 357.859 218.652 359.924 C 217.674 360.492 216.628 360.934 215.539 361.239 C 214.137 361.874 212.52 361.827 211.157 361.111 C 209.794 360.395 208.837 359.091 208.564 357.576 C 207.537 354.241 207.537 350.674 208.564 347.338 C 211.244 338.632 215.889 331.307 223.663 326.179 C 227.408 323.687 231.878 322.515 236.365 322.85 C 237.591 323.048 238.835 322.631 239.694 321.735 C 240.67 321.062 241.75 320.556 242.891 320.236 C 241.892 323.882 240.96 327.045 240.177 330.225 Q 237.497 341.162 234.967 352.149 C 234.855 353.34 234.855 354.538 234.967 355.728 C 236.798 354.829 238.213 354.247 239.495 353.464 C 240.776 352.682 242.075 351.633 243.49 350.618 L 244.905 352.282 C 240.577 356.161 236.731 360.49 230.638 361.355 C 227.309 361.821 226.493 360.922 227.209 357.61 C 227.575 356.211 228.041 354.896 228.491 353.514 Z  M 234.367 328.76 C 229.686 326.726 224.223 328.092 221.049 332.089 C 216.756 337.427 214.581 344.16 214.94 351.001 C 215.14 355.196 217.803 356.81 221.599 354.963 C 225.243 353.333 228.025 350.236 229.256 346.439 C 231.054 340.613 232.619 334.719 234.334 328.76 L 234.367 328.76 L 234.367 328.76 Z " fill="rgb(0,0,0)"/><path d=" M 288.321 352.199 C 288.458 344.552 291.049 337.152 295.713 331.09 C 297.424 328.499 299.473 326.148 301.806 324.098 C 305.285 321.368 309.58 321.685 313.625 322.783 C 315.551 323.394 316.824 325.227 316.722 327.245 C 317.042 331.415 314.858 335.377 311.161 337.333 C 307.216 339.647 303.121 341.728 299.092 343.992 C 297.432 345.076 296.276 346.779 295.881 348.722 C 295.487 350.665 295.888 352.685 296.995 354.33 C 298.318 355.962 300.673 356.302 302.405 355.112 C 305.052 353.747 307.549 352.083 310.163 350.634 C 311.145 350.102 312.094 348.437 313.376 349.952 C 314.657 351.467 312.926 352.449 312.044 353.065 C 308.365 355.645 304.636 358.192 300.724 360.39 C 298.978 361.205 297.074 361.625 295.147 361.622 C 291.518 361.821 289.303 359.957 288.687 356.228 C 288.504 354.863 288.421 353.514 288.321 352.199 Z  M 297.128 342.294 C 300.073 340.673 302.919 338.877 305.651 336.917 C 307.394 335.399 308.825 333.555 309.863 331.49 C 310.349 330.63 310.445 329.604 310.127 328.67 C 309.81 327.735 309.108 326.98 308.198 326.596 C 306.336 325.661 304.082 326.061 302.655 327.578 C 299.142 331.756 298.01 336.85 297.128 342.311 L 297.128 342.294 L 297.128 342.294 Z " fill="rgb(0,0,0)"/><path d=" M 340.561 322.151 C 343.05 321.953 345.515 322.763 347.403 324.398 C 348.922 325.622 349.201 327.828 348.035 329.392 C 346.953 330.757 345.189 330.791 343.457 329.392 C 342.492 328.593 341.576 327.728 340.677 326.812 C 339.396 325.345 337.259 324.983 335.566 325.946 C 333.743 326.814 332.788 328.85 333.286 330.807 C 333.941 332.803 334.883 334.693 336.082 336.417 C 337.747 338.831 339.795 340.946 341.443 343.359 C 345.272 348.97 344.14 354.913 338.546 358.825 C 333.252 362.537 327.626 362.604 321.899 360.04 C 319.446 358.773 318.029 356.125 318.336 353.381 C 318.515 351.579 320.022 350.202 321.832 350.185 C 322.698 350.188 323.524 350.546 324.119 351.175 C 324.714 351.804 325.024 352.65 324.979 353.514 C 325.262 358.026 327.376 359.69 331.638 358.375 C 333.383 357.794 334.972 356.82 336.282 355.529 C 337.839 354.018 338.078 351.605 336.848 349.819 C 335.816 348.054 334.551 346.406 333.352 344.741 C 332.154 343.076 330.889 341.595 329.806 339.93 C 324.696 332.073 328.941 323.283 338.313 322.217 C 339.096 322.201 339.828 322.201 340.561 322.151 Z " fill="rgb(0,0,0)"/><path d=" M 82.893 404.488 C 85.257 405.637 87.554 406.153 89.918 404.722 C 90.201 404.538 90.701 404.722 91.1 404.722 L 214.44 404.722 L 214.74 407.119 L 89.219 407.119 C 88.354 407.059 87.487 407.059 86.622 407.119 C 85.774 407.308 84.885 407.131 84.175 406.63 C 83.464 406.129 82.999 405.351 82.893 404.488 L 82.893 404.488 L 82.893 404.488 Z " fill="rgb(0,0,0)"/><path d=" M 84.391 409.017 L 84.391 411.747 Q 84.391 446.39 84.391 481.016 C 84.391 485.578 84.391 485.578 88.869 485.578 L 115.955 485.578 C 116.437 487.459 115.772 488.125 114.107 488.125 Q 98.941 488.125 83.759 488.125 C 82.394 488.125 81.794 487.575 81.811 486.244 C 81.811 485.777 81.811 485.311 81.811 484.845 Q 81.811 449.503 81.811 414.177 C 81.614 412.105 82.615 410.102 84.391 409.017 L 84.391 409.017 L 84.391 409.017 Z " fill="rgb(0,0,0)"/><path d=" M 419.702 402.74 L 361.436 402.74 L 361.436 402.241 C 381.297 401.092 401.157 401.159 421.15 401.475 L 421.15 491.171 C 408.937 491.745 396.697 491.445 384.526 490.272 L 419.685 490.272 L 419.702 402.74 L 419.702 402.74 Z " fill="rgb(0,0,0)"/><line x1="381.796" y1="491.155" x2="250.432" y2="491.155"/><path d=" M 250.132 385.144 C 249.849 386.193 249.566 387.109 249.383 388.041 C 249.1 389.489 248.817 390.921 248.667 392.386 C 248.484 394.2 249.733 394.334 251.114 394.35 C 252.779 394.35 253.112 393.385 253.112 392.036 C 253.112 390.688 253.445 389.073 251.98 387.841 C 250.881 386.926 251.581 385.327 253.012 385.044 C 253.477 385.003 253.945 385.003 254.411 385.044 C 258.073 385.044 258.456 385.61 256.891 388.907 C 256.618 389.423 256.453 389.989 256.408 390.571 Q 256.408 396.365 256.408 402.224 C 256.474 402.811 256.661 403.378 256.958 403.889 C 257.39 404.788 257.873 405.67 258.622 406.952 L 251.963 406.952 C 251.614 405.887 251.331 404.905 252.613 403.939 C 253.895 402.974 253.512 398.712 252.113 398.029 C 251.281 397.691 250.349 397.691 249.516 398.029 C 248.933 398.508 248.622 399.242 248.684 399.994 C 248.977 401.548 249.366 403.082 249.849 404.588 C 250.049 405.354 250.282 406.103 250.582 407.119 C 248.651 407.119 246.936 407.119 245.238 407.119 C 244.755 407.119 243.956 406.736 243.889 406.42 C 243.818 405.735 243.915 405.043 244.172 404.405 C 244.624 403.545 244.971 402.634 245.205 401.692 C 245.338 398.778 245.354 395.832 245.205 392.919 C 245.093 391.224 244.786 389.548 244.289 387.924 C 243.706 385.943 243.956 385.377 246.037 385.211 C 247.036 385.211 248.035 385.211 249.034 385.211 C 249.399 385.172 249.765 385.15 250.132 385.144 L 250.132 385.144 L 250.132 385.144 Z " fill="rgb(0,0,0)"/><path d=" M 249.383 490.489 C 246.936 491.787 130.305 491.737 127.491 490.489 L 249.383 490.489 L 249.383 490.489 Z " fill="rgb(0,0,0)"/><path d=" M 416.939 342.993 C 415.823 343.076 414.841 343.226 413.842 343.226 L 359.355 343.226 C 358.057 343.226 356.509 343.459 356.775 341.095 C 357.541 340.971 358.314 340.887 359.089 340.846 L 413.576 340.846 C 414.941 340.829 416.406 340.946 416.939 342.993 Z " fill="rgb(0,0,0)"/><path d=" M 270.292 394.633 L 270.292 397.114 C 268.627 397.73 266.696 397.913 265.997 398.962 C 265.298 400.01 265.831 401.991 265.831 403.739 C 267.695 403.523 269.493 404.572 270.825 402.408 C 271.541 401.292 273.722 402.408 273.821 403.989 C 273.821 404.985 273.76 405.98 273.638 406.969 C 269.643 406.969 265.747 406.969 261.835 406.969 C 261.486 406.969 260.853 406.519 260.87 406.303 C 260.87 405.571 260.97 404.405 261.386 404.205 C 262.568 403.639 262.535 402.774 262.535 401.758 C 262.535 398.762 262.651 395.765 262.535 392.769 C 262.398 391.021 262.04 389.298 261.469 387.641 C 260.903 385.977 261.103 385.178 262.934 385.094 C 265.931 384.961 268.927 384.978 271.907 385.094 C 272.54 385.094 273.572 386.027 273.572 386.526 C 273.502 387.669 273.153 388.778 272.556 389.756 C 272.456 389.939 271.108 389.373 270.309 389.223 C 269.077 388.973 266.979 388.324 266.763 388.657 C 266.128 390.045 265.815 391.559 265.847 393.085 C 265.847 394.5 267.162 394.5 268.245 394.567 L 270.292 394.633 L 270.292 394.633 Z " fill="rgb(0,0,0)"/><path d=" M 84.941 401.825 L 214.224 401.825 L 214.324 402.408 C 213.438 402.574 212.543 402.685 211.644 402.74 Q 192.566 402.74 173.488 402.74 L 90.251 402.74 C 88.503 402.74 86.755 402.524 84.991 402.408 L 84.941 401.825 L 84.941 401.825 Z " fill="rgb(0,0,0)"/><path d=" M 78.881 341.645 C 79.556 341.327 80.274 341.108 81.012 340.995 Q 111.56 340.995 142.124 340.995 C 142.438 341.016 142.75 341.061 143.057 341.129 C 143.489 342.494 142.957 343.11 141.708 343.21 C 141.242 343.21 140.776 343.21 140.31 343.21 Q 111.16 343.21 82.044 343.21 C 80.999 343.107 79.968 342.901 78.964 342.594 L 78.881 341.645 L 78.881 341.645 Z " fill="rgb(0,0,0)"/><path d=" M 79.797 490.372 L 125.66 490.372 L 125.66 490.971 L 78.781 490.971 L 78.781 412.962 L 79.397 412.829 C 79.589 413.588 79.717 414.362 79.78 415.143 Q 79.78 440.114 79.78 465.085 L 79.78 490.389 L 79.797 490.372 L 79.797 490.372 Z " fill="rgb(0,0,0)"/><path d=" M 342.558 406.786 L 285.225 406.786 L 285.491 404.555 L 338.48 404.555 C 340.19 404.276 341.871 405.195 342.558 406.786 L 342.558 406.786 L 342.558 406.786 Z " fill="rgb(0,0,0)"/><path d=" M 235.033 388.44 C 235.033 393.251 235.033 397.946 235.033 402.657 C 235.033 403.04 235.416 403.423 235.632 403.806 L 237.297 406.802 L 230.488 406.802 C 230.122 405.654 229.623 404.472 231.287 403.706 C 231.611 403.42 231.793 403.006 231.787 402.574 C 231.787 398.329 231.787 394.067 231.787 389.822 C 231.767 389.27 231.49 388.758 231.038 388.44 C 230.688 388.291 230.089 388.823 229.573 388.973 C 228.757 389.239 227.359 389.822 227.192 389.589 C 226.576 388.709 226.235 387.666 226.21 386.593 C 226.21 386.076 227.275 385.161 227.875 385.144 C 231.97 385.011 236.082 385.144 240.294 385.144 L 240.294 389.506 C 238.196 391.171 237.147 388.141 235.033 388.44 Z " fill="rgb(0,0,0)"/><path d=" M 398.044 333.687 L 356.858 333.687 L 356.858 331.64 L 358.906 331.64 C 371.275 331.64 383.644 331.64 395.996 331.64 C 397.411 331.623 398.41 331.773 398.044 333.687 Z " fill="rgb(0,0,0)"/><path d=" M 142.99 331.606 L 142.99 333.671 L 102.187 333.671 L 102.187 331.606 L 142.99 331.606 L 142.99 331.606 Z " fill="rgb(0,0,0)"/><path d=" M 397.944 350.351 L 397.944 352.016 C 397.744 352.133 397.578 352.299 397.411 352.316 C 396.08 352.316 394.764 352.432 393.433 352.432 L 360.005 352.432 C 359.344 352.512 358.674 352.478 358.024 352.332 C 357.524 352.149 357.175 351.55 356.758 351.134 C 357.225 350.817 357.691 350.218 358.14 350.218 Q 377.784 350.218 397.428 350.218 C 397.604 350.247 397.776 350.291 397.944 350.351 Z " fill="rgb(0,0,0)"/><path d=" M 142.973 350.268 L 142.973 352.066 C 142.524 352.066 142.208 352.066 141.875 352.066 C 129.089 352.066 116.321 352.066 103.586 352.066 C 102.204 352.066 101.571 351.716 102.071 350.168 L 142.973 350.268 L 142.973 350.268 Z " fill="rgb(0,0,0)"/><path d=" M 286.756 402.141 C 304.869 401.242 322.964 401.126 341.077 401.908 C 322.985 402.903 304.855 402.981 286.756 402.141 L 286.756 402.141 L 286.756 402.141 Z " fill="rgb(0,0,0)"/><path d=" M 118.102 487.276 C 118.332 486.63 118.846 486.125 119.495 485.908 C 120.145 485.69 120.859 485.783 121.432 486.16 C 123.095 487.031 125.079 487.031 126.742 486.16 C 127.108 485.998 127.508 485.93 127.907 485.961 C 128.547 486.053 129.18 486.181 129.805 486.343 C 129.339 486.843 128.89 487.742 128.424 487.758 C 125.094 487.758 121.864 487.758 118.585 487.659 C 118.518 487.725 118.385 487.492 118.102 487.276 Z " fill="rgb(0,0,0)"/><path d=" M 344.606 402.358 C 349.01 401.124 353.669 401.124 358.074 402.358 L 344.606 402.358 L 344.606 402.358 Z " fill="rgb(0,0,0)"/><path d=" M 83.392 402.358 C 80.962 402.507 79.331 403.123 79.464 405.521 C 78.365 405.005 78.248 404.156 78.898 402.707 C 79.547 401.259 80.512 400.993 83.392 402.358 Z " fill="rgb(0,0,0)"/><path d=" M 354.561 406.469 C 351.731 407.302 351.048 406.836 351.232 404.272 L 354.561 406.469 L 354.561 406.469 Z " fill="rgb(0,0,0)"/><path d=" M 78.565 411.064 L 78.948 407.735 L 79.813 407.818 L 79.547 411.147 L 78.565 411.064 L 78.565 411.064 Z " fill="rgb(0,0,0)"/><path d=" M 345.954 406.703 C 347.419 405.554 348.501 404.871 349.683 406.703 L 345.954 406.703 L 345.954 406.703 Z " fill="rgb(0,0,0)"/><path d=" M 288.421 463.587 C 295.08 460.59 296.345 458.343 296.262 451.401 C 296.262 445.741 296.262 440.08 296.262 434.42 C 296.317 433.747 296.423 433.08 296.578 432.423 L 297.161 432.423 C 297.391 433.052 297.547 433.705 297.627 434.37 C 297.627 441.495 297.744 448.604 297.627 455.729 C 297.627 460.856 294.048 463.919 288.421 463.587 Z " fill="rgb(0,0,0)"/><path d=" M 284.958 432.672 L 284.958 457.643 C 283.826 455.979 283.593 434.87 284.376 432.672 L 284.958 432.672 L 284.958 432.672 Z " fill="rgb(0,0,0)"/><path d=" M 272.29 457.077 C 271.954 456.061 271.726 455.012 271.607 453.948 C 271.607 447.422 271.607 440.896 271.607 434.37 C 271.677 433.698 271.817 433.034 272.024 432.389 L 272.573 432.389 L 272.573 456.928 L 272.29 457.077 L 272.29 457.077 Z " fill="rgb(0,0,0)"/><path d=" M 283.177 462.022 L 277.084 464.053 L 276.818 463.27 C 278.832 462.571 280.347 460.424 282.944 461.339 L 283.177 462.022 L 283.177 462.022 Z " fill="rgb(0,0,0)"/><path d=" M 248.351 432.789 L 248.351 463.104 C 248.082 463.163 247.81 463.202 247.535 463.22 C 247.286 463.24 247.035 463.24 246.786 463.22 C 246.919 461.306 247.169 459.475 247.186 457.643 C 247.186 450.335 247.186 443.01 247.186 435.702 C 247.186 434.737 247.335 433.788 247.402 432.822 L 248.351 432.789 L 248.351 432.789 Z " fill="rgb(0,0,0)"/><path d=" M 224.329 463.22 L 222.664 463.22 L 222.664 440.63 L 223.463 440.447 C 223.746 441.079 224.279 441.695 224.279 442.328 C 224.346 449.237 224.329 456.095 224.329 463.22 Z " fill="rgb(0,0,0)"/><path d=" M 243.573 440.68 C 241.709 446.473 238.096 451.351 235.25 456.645 L 234.434 456.412 C 234.433 455.528 234.579 454.65 234.867 453.815 C 237.197 449.636 239.628 445.491 242.042 441.396 C 242.354 441 242.718 440.647 243.124 440.347 L 243.573 440.68 L 243.573 440.68 Z " fill="rgb(0,0,0)"/><path d=" M 329.573 445.191 C 329.573 453.515 324.28 458.909 317.537 459.075 C 312.776 459.192 308.015 454.464 307.549 449.17 C 306.989 444.893 308.93 440.673 312.543 438.316 C 316.168 435.758 320.931 435.48 324.829 437.6 C 327.733 439.014 329.575 441.961 329.573 445.191 Z " fill="rgb(0,0,0)"/><path d=" M 317.837 463.57 C 331.455 461.089 336.415 449.503 332.553 439.931 C 335.3 442.494 335.999 449.087 334.018 453.881 C 331.405 460.257 325.761 463.753 317.837 463.57 Z " fill="rgb(0,0,0)"/><path d=" M 306.733 452.4 C 304.719 450.635 304.219 444.825 306.134 441.229 C 308.731 436.351 312.693 434.154 318.619 434.57 C 316.728 435.099 314.894 435.813 313.142 436.701 C 311.393 437.764 309.876 439.168 308.681 440.83 C 307.546 442.53 306.791 444.455 306.467 446.473 C 306.338 448.452 306.427 450.44 306.733 452.4 L 306.733 452.4 L 306.733 452.4 Z " fill="rgb(0,0,0)"/><path d=" M 150.598 447.971 L 150.598 437.134 C 153.444 436.152 156.491 436.585 157.706 438.133 C 159.018 440.198 159.05 442.828 157.789 444.925 C 156.372 447.466 153.41 448.721 150.598 447.971 Z " fill="rgb(0,0,0)"/><path d=" M 161.535 436.285 C 164.928 439.929 165.063 445.532 161.851 449.336 C 160.799 450.442 159.639 451.44 158.389 452.316 C 158.022 452.583 157.373 452.466 156.841 452.516 C 156.997 451.997 157.191 451.491 157.423 451.001 C 157.573 450.735 157.923 450.568 158.172 450.352 C 162.153 447.494 163.733 442.329 162.035 437.733 C 161.901 437.434 161.901 437.134 161.535 436.285 Z " fill="rgb(0,0,0)"/><path d=" M 148.117 435.136 L 153.112 435.136 L 153.112 435.536 L 149.349 435.885 L 149.349 448.204 L 148.733 448.354 C 148.44 447.902 148.231 447.4 148.117 446.873 C 148.101 443.01 148.117 439.148 148.117 435.136 Z " fill="rgb(0,0,0)"/><path d=" M 149.249 456.545 L 149.066 460.49 L 148.484 460.49 L 148.484 456.561 L 149.249 456.545 L 149.249 456.545 Z " fill="rgb(0,0,0)"/><path d=" M 151.796 452.616 L 148.234 454.597 L 148.067 452.616 L 151.796 452.616 L 151.796 452.616 Z " fill="rgb(0,0,0)"/><path d=" M 345.971 448.021 L 345.971 437.167 C 348.258 435.934 351.08 436.325 352.946 438.133 C 354.424 440.021 354.602 442.619 353.396 444.692 C 352.014 447.322 349.484 448.487 345.971 448.021 Z " fill="rgb(0,0,0)"/><path d=" M 357.624 437.467 C 361.819 444.326 358.223 449.52 353.312 452.782 C 352.927 452.923 352.498 452.88 352.147 452.666 C 352.014 452.666 352.147 451.967 352.147 451.634 C 352.272 451.396 352.463 451.2 352.697 451.068 C 357.295 448.226 359.335 442.595 357.624 437.467 L 357.624 437.467 L 357.624 437.467 Z " fill="rgb(0,0,0)"/><path d=" M 348.618 435.769 L 344.706 435.769 L 344.706 448.188 L 344.057 448.354 C 343.797 447.765 343.618 447.143 343.524 446.506 C 343.524 443.443 343.524 440.38 343.524 437.334 C 343.524 434.886 343.907 434.487 346.42 434.603 C 347.225 434.716 348.016 434.906 348.784 435.17 L 348.618 435.769 L 348.618 435.769 Z " fill="rgb(0,0,0)"/><path d=" M 344.756 463.12 L 343.224 463.12 L 343.224 452.599 L 346.887 452.599 C 344.739 453.149 344.689 454.747 344.739 456.511 C 344.806 458.676 344.756 460.856 344.756 463.12 Z " fill="rgb(0,0,0)"/><path d=" M 185.657 432.29 C 185.774 433.139 186.206 434.154 185.89 434.753 C 185.574 435.353 184.458 435.569 183.676 435.602 C 180.813 435.702 177.949 435.602 175.103 435.602 C 173.538 435.602 172.805 436.235 172.922 437.916 C 173.013 439.508 173.013 441.103 172.922 442.694 C 172.838 443.376 172.698 444.049 172.506 444.708 L 171.973 444.708 C 171.775 444.005 171.635 443.287 171.557 442.561 C 171.557 440.63 171.557 438.699 171.557 436.768 C 171.557 434.837 172.289 434.37 173.954 434.404 C 176.618 434.404 179.281 434.404 181.928 434.404 C 184.175 434.454 184.175 434.454 185.657 432.29 Z " fill="rgb(0,0,0)"/><path d=" M 185.208 446.39 C 186.323 448.238 185.774 449.32 183.992 449.353 C 181.412 449.353 178.815 449.353 176.235 449.353 C 173.038 449.353 172.905 449.353 172.905 452.533 C 172.905 453.798 172.905 455.063 172.905 456.328 C 172.816 457.016 172.672 457.695 172.472 458.359 L 171.99 458.359 L 171.99 448.87 L 181.162 448.87 C 182.944 448.837 184.941 449.32 185.208 446.39 Z " fill="rgb(0,0,0)"/><path d=" M 185.707 460.224 L 186.19 463.187 L 170.575 463.187 L 170.575 462.937 C 170.959 462.819 171.356 462.741 171.757 462.704 C 175.203 462.704 178.665 462.704 182.111 462.821 C 183.768 462.898 185.259 461.821 185.707 460.224 Z " fill="rgb(0,0,0)"/><path d=" M 125.71 437.034 C 128.127 436.586 130.602 437.447 132.219 439.298 C 134.941 442.351 135.725 446.67 134.25 450.485 C 133.01 454.428 129.75 457.402 125.71 458.276 L 125.71 437.034 L 125.71 437.034 Z " fill="rgb(0,0,0)"/><path d=" M 122.913 463.104 C 134.733 462.305 142.208 451.451 137.43 439.231 C 140.493 441.329 141.209 450.435 138.562 455.313 C 135.475 460.913 129.242 464.016 122.913 463.104 Z " fill="rgb(0,0,0)"/><path d=" M 123.18 434.87 L 125.044 435.07 C 124.662 435.825 124.393 436.633 124.245 437.467 C 124.245 443.859 124.245 450.235 124.245 456.628 C 124.171 457.304 124.038 457.973 123.846 458.626 C 122.897 457.31 122.53 441.113 123.18 434.87 Z " fill="rgb(0,0,0)"/><path d=" M 380.265 432.922 L 371.208 445.341 C 370.043 444.492 369.943 443.776 370.792 442.694 C 373.073 439.748 375.187 436.701 377.451 433.771 C 378.128 433.103 378.903 432.542 379.748 432.106 L 380.265 432.922 L 380.265 432.922 Z " fill="rgb(0,0,0)"/><path d=" M 368.212 463.104 L 366.664 463.104 L 366.664 447.871 L 367.346 447.688 C 367.629 448.238 368.145 448.787 368.145 449.353 C 368.245 453.898 368.212 458.459 368.212 463.104 Z " fill="rgb(0,0,0)"/><line x1="367.163" y1="439.814" x2="367.163" y2="432.223"/><path d=" M 214.99 463.204 L 211.843 463.204 L 213.508 462.238 L 202.97 432.789 L 203.803 432.489 L 214.99 463.204 L 214.99 463.204 Z " fill="rgb(0,0,0)"/><path d=" M 205.001 452.033 C 203.603 452.033 202.205 452.116 200.823 452.033 C 200.095 451.861 199.329 451.992 198.701 452.398 C 198.072 452.803 197.636 453.447 197.493 454.181 C 196.744 456.578 195.829 458.909 195.03 461.306 C 194.497 462.971 193.598 463.753 192.166 463.32 C 193.398 459.991 194.713 456.861 195.845 453.581 C 196.14 452.032 197.62 451.004 199.175 451.267 C 201.073 451.401 202.987 451.267 204.901 451.267 L 205.001 452.033 L 205.001 452.033 Z " fill="rgb(0,0,0)"/><line x1="198.376" y1="447.156" x2="200.939" y2="440.214"/><path d=" M 201.389 447.272 L 202.354 443.943 L 203.836 447.022 L 201.389 447.272 L 201.389 447.272 Z " fill="rgb(0,0,0)"/></g></g></g></g></g></g></g></svg>