<svg id="Layer_1" data-name="Layer 1" xmlns="http://www.w3.org/2000/svg" viewBox="0 0 160.15 33.28"><title>ЗДФТЫ</title><path d="M162.21,12.8l.25-5.63h20.93l.26,5.63Zm14.39,1.75v25.9h-6.42V14.55Z" transform="translate(-162.21 -7.17)"/><path d="M198.77,7.17,191,40.45h-6.42l7.62-33.28Zm-.87,11.18,2.39-11.18H202l7.38,33.28h-6.42l-1.87-7h-6.92l1.2-5.16h4.78Z" transform="translate(-162.21 -7.17)"/><path d="M216.65,7.17V40.45h-6.42V7.17Zm1.83,0h4.92q8.49,0,8.49,7.27v6.09q0,6.78-8.49,7.27h-4.92V22.17h3.75c2.16,0,3.23-.7,3.23-2.11V14.91c0-1.41-1.07-2.11-3.23-2.11h-3.75Z" transform="translate(-162.21 -7.17)"/><path d="M242,40.45h-6.94L251.48,7.17h6.7Zm-.37-15.89L235.21,37V7.17l6.43.24Zm10-1.48L258,10.48v30l-6.42-.23Z" transform="translate(-162.21 -7.17)"/><path d="M270,33.42h-.38q-8.47,0-8.48-4.92V20.3q0-7.28,8.48-7.27H270V18.7c-1.63.22-2.44.91-2.44,2.06v5.4c0,1.15.81,1.84,2.44,2.06Zm8.11,6.8-6.42.23V7.17h6.42Zm1.57-27.42h1.19q8.49,0,8.49,7.26v6.1q0,6.77-8.49,7.26h-1.19V28.26c2.17-.06,3.26-.76,3.26-2.1V20.53c0-1.34-1.09-2.05-3.26-2.11Z" transform="translate(-162.21 -7.17)"/><path d="M292.5,40.45V7.17l6.42.24v33Zm8-5.62h4c2.15,0,3.23-.71,3.23-2.11V27.56c0-1.4-1.08-2.11-3.23-2.11h-4V19.83h5.21q8.47.5,8.48,7.26v6.1q0,7.26-8.48,7.26h-5.18ZM322.36,7.17V40.45h-6.43V7.17Z" transform="translate(-162.21 -7.17)"/></svg>