<svg id="Layer_1" data-name="Layer 1" xmlns="http://www.w3.org/2000/svg" viewBox="0 0 275.72 33.75"><title>НПГ</title><path d="M22.27,13.8H20.91a1.85,1.85,0,0,0-2.07,2.11V33.72a1.85,1.85,0,0,0,2.07,2.11h1.36v5.62H19.73q-7.31,0-7.31-7.26V15.44q0-7.27,7.31-7.27h2.54Zm1.89,22h1.43a1.85,1.85,0,0,0,2.07-2.11V15.91a1.85,1.85,0,0,0-2.07-2.11H24.16V8.17h2.61q7.31,0,7.31,7.27V34.19q0,7.26-7.31,7.26H24.16Z" transform="translate(-12.42 -7.94)"/><path d="M51,8.41V41.22l-6.65.23V8.17Zm1.6,11.53,7.1-12,7.4.25L56.84,24.81,67.05,41.43l-7.4.26-7.1-12Z" transform="translate(-12.42 -7.94)"/><path d="M79.92,13.8H78.56a1.84,1.84,0,0,0-2.06,2.11V33.72a1.85,1.85,0,0,0,2.06,2.11h1.36v5.62H77.39q-7.31,0-7.31-7.26V15.44q0-7.27,7.31-7.27h2.53Zm1.9,22h1.43a1.85,1.85,0,0,0,2.06-2.11V15.91a1.84,1.84,0,0,0-2.06-2.11H81.82V8.17h2.6q7.32,0,7.31,7.27V34.19q0,7.26-7.31,7.26h-2.6Z" transform="translate(-12.42 -7.94)"/><path d="M101.34,8.17V41.45H94.92V8.17Zm1.55,14.06h4c2-.15,3-1.09,3-2.81V15.91c0-1.41-.92-2.11-2.76-2.11h-4.27V8.17h5q8.49,0,8.48,7.27v4c0,2.92-1.18,4.71-3.56,5.37q4,1,4,5.41v4q0,7.26-8.48,7.26h-5.44V35.83h4.27c2.15,0,3.23-.71,3.23-2.11V30.2c0-1.72-1.16-2.65-3.47-2.81h-4Z" transform="translate(-12.42 -7.94)"/><path d="M129.84,13.8h-1.36a1.84,1.84,0,0,0-2.06,2.11V33.72a1.85,1.85,0,0,0,2.06,2.11h1.36v5.62h-2.53q-7.31,0-7.31-7.26V15.44q0-7.27,7.31-7.27h2.53Zm1.9,22h1.43a1.84,1.84,0,0,0,2.06-2.11V15.91a1.84,1.84,0,0,0-2.06-2.11h-1.43V8.17h2.6q7.32,0,7.32,7.27V34.19q0,7.26-7.32,7.26h-2.6Z" transform="translate(-12.42 -7.94)"/><path d="M151.27,8.17V41.45h-6.43V8.17Zm1.82,0H158q8.47,0,8.48,7.27v6.09q0,6.78-8.48,7.27h-4.93V23.17h3.75c2.16,0,3.24-.7,3.24-2.11V15.91c0-1.41-1.08-2.11-3.24-2.11h-3.75Z" transform="translate(-12.42 -7.94)"/><path d="M176.34,8.41V41.22l-6.65.23V8.17Zm1.6,11.53,7.1-12,7.41.25L182.23,24.81l10.22,16.62-7.41.26-7.1-12Z" transform="translate(-12.42 -7.94)"/><path d="M202.41,41.45h-6.94L211.88,8.17h6.7ZM202,25.56,195.61,38V8.17l6.42.24Zm10-1.48,6.42-12.6v30L212,41.22Z" transform="translate(-12.42 -7.94)"/><path d="M230.88,27.39h-2.74V41.45h-6.66V8.17h6.66V22.23h2.74Zm1.81-5.16H236V8.17h7.12V41.45H236V27.39h-3.33Z" transform="translate(-12.42 -7.94)"/><path d="M252.75,8.17V41.45h-6.42V8.17Zm1.92,0h10.74l.23,5.63h-11Z" transform="translate(-12.42 -7.94)"/><path d="M275.25,8.17V41.45h-6.42V8.17Zm1.92,0h10.74l.23,5.63h-11Zm0,14.06h8.63v5.16h-8.63Zm0,13.6h11l-.23,5.62H277.17Z" transform="translate(-12.42 -7.94)"/></svg>