<?xml version="1.0" encoding="utf-8"?>
<!-- Generator: Adobe Illustrator 22.0.0, SVG Export Plug-In . SVG Version: 6.00 Build 0)  -->
<svg version="1.1" id="Layer_1" xmlns="http://www.w3.org/2000/svg" xmlns:xlink="http://www.w3.org/1999/xlink" x="0px" y="0px"
	 viewBox="0 0 369 47" style="enable-background:new 0 0 369 47;" xml:space="preserve">
<style type="text/css">
	.st0{fill:none;}
	.st1{fill:#FFFFFF;}
</style>
<g>
	<rect x="5.5" y="6.9" class="st0" width="227.9" height="40.1"/>
	<path class="st1" d="M18.7,7.2L11,40H5.1l7.5-32.8H18.7z M18.4,18.1l2.3-10.9H22L29.3,40h-5.9l-1.9-7h-6.8l1.1-4.7h4.9L18.4,18.1z"
		/>
	<path class="st1" d="M30.8,40V7.2h19.7l-0.2,5.1l-13.6,0V40H30.8z M38.8,40l0-5.2h3.8c2.3,0,3.5-0.8,3.5-2.3v-5.6
		c0-1.6-1.2-2.3-3.5-2.3h-3.8v-4.7h4.9c5.5,0.3,8.2,2.7,8.2,7V33c0,4.7-2.7,7-8.2,7H38.8z"/>
	<path class="st1" d="M64.9,12.3h-1.1c-1.6,0-2.3,0.8-2.3,2.3v17.8c0,1.6,0.8,2.3,2.3,2.3h1.1V40h-2.2c-4.7,0-7-2.3-7-7V14.2
		c0-4.7,2.3-7,7-7h2.2V12.3z M67.4,34.8h1.1c1.6,0,2.3-0.8,2.3-2.3V14.7c0-1.6-0.8-2.3-2.3-2.3h-1.1V7.2h2.3c4.7,0,7,2.3,7,7V33
		c0,4.7-2.3,7-7,7h-2.3V34.8z"/>
	<path class="st1" d="M89.3,25.9h-2.7V40h-6.1V7.2h6.1v14.1h2.7V25.9z M91.7,21.2H95V7.2h6.6V40H95V25.9h-3.3V21.2z"/>
	<path class="st1" d="M111.2,7.2V40h-5.9V7.2H111.2z M113.7,7.2h10.2l0.2,5.2h-10.4V7.2z M113.7,21.2h8.1v4.7h-8.1V21.2z
		 M113.7,34.8h10.4l-0.2,5.2h-10.2V34.8z"/>
	<path class="st1" d="M133.7,24.5v15.2l-5.9,0.2V7.6L133.7,24.5z M145.3,39.1h-4.9L129.8,7.2h5.3l7.7,22l7.7-22h5.3L145.3,39.1z
		 M157.8,7.6V40l-5.9-0.2V24.5l-0.1,0.2L157.8,7.6z"/>
	<path class="st1" d="M167.5,7.2V40h-5.9V7.2H167.5z M169.9,7.2h10.2l0.2,5.2h-10.4V7.2z M169.9,21.2h8.1v4.7h-8.1V21.2z
		 M169.9,34.8h10.4l-0.2,5.2h-10.2V34.8z"/>
	<path class="st1" d="M192.9,25.9h-2.7V40h-6.1V7.2h6.1v14.1h2.7V25.9z M195.3,21.2h3.3V7.2h6.6V40h-6.6V25.9h-3.3V21.2z"/>
	<path class="st1" d="M208.9,12.3l0.2-5.2h20.4l0.2,5.2H208.9z M222.8,14.6V40h-5.9V14.6H222.8z"/>
</g>
<g>
</g>
<g>
</g>
<g>
</g>
<g>
</g>
<g>
</g>
</svg>
